<svg width="730" height="300" viewBox="0 0 730 300" fill="none" xmlns="http://www.w3.org/2000/svg">
<path d="M157 90C155.167 90 153.597 89.3472 152.292 88.0417C150.986 86.7361 150.333 85.1667 150.333 83.3333V36.6667C150.333 34.8333 150.986 33.2639 152.292 31.9583C153.597 30.6528 155.167 30 157 30H203.667C205.5 30 207.069 30.6528 208.375 31.9583C209.68 33.2639 210.333 34.8333 210.333 36.6667V83.3333C210.333 85.1667 209.68 86.7361 208.375 88.0417C207.069 89.3472 205.5 90 203.667 90H157ZM157 83.3333H203.667V36.6667H157V83.3333ZM180.333 80C185.722 75.4444 189.736 71.2083 192.375 67.2917C195.014 63.375 196.333 59.75 196.333 56.4167C196.333 51.3611 194.722 47.3611 191.5 44.4167C188.278 41.4722 184.555 40 180.333 40C176.111 40 172.389 41.4722 169.167 44.4167C165.944 47.3611 164.333 51.3611 164.333 56.4167C164.333 59.75 165.653 63.375 168.292 67.2917C170.93 71.2083 174.944 75.4444 180.333 80ZM180.333 60.8333C179.167 60.8333 178.18 60.4306 177.375 59.625C176.569 58.8194 176.167 57.8333 176.167 56.6667C176.167 55.5 176.569 54.5139 177.375 53.7083C178.18 52.9028 179.167 52.5 180.333 52.5C181.5 52.5 182.486 52.9028 183.292 53.7083C184.097 54.5139 184.5 55.5 184.5 56.6667C184.5 57.8333 184.097 58.8194 183.292 59.625C182.486 60.4306 181.5 60.8333 180.333 60.8333Z" fill="#3C373C"/>
<path d="M134.893 124.96H144.813V126.28H134.893V124.96ZM131.533 129.5H149.233V130.92H131.533V129.5ZM139.593 128.06H141.113V134.8C141.113 135.253 141.04 135.6 140.893 135.84C140.76 136.08 140.507 136.26 140.133 136.38C139.773 136.487 139.293 136.553 138.693 136.58C138.107 136.607 137.353 136.62 136.433 136.62C136.38 136.407 136.287 136.16 136.153 135.88C136.033 135.6 135.907 135.36 135.773 135.16C136.293 135.173 136.78 135.18 137.233 135.18C137.687 135.193 138.073 135.2 138.393 135.2C138.727 135.2 138.96 135.193 139.093 135.18C139.293 135.167 139.427 135.127 139.493 135.06C139.56 135.007 139.593 134.913 139.593 134.78V128.06ZM144.353 124.96H144.713L145.033 124.88L146.013 125.6C145.56 126.053 145.033 126.507 144.433 126.96C143.847 127.4 143.227 127.813 142.573 128.2C141.92 128.587 141.28 128.92 140.653 129.2C140.547 129.053 140.407 128.9 140.233 128.74C140.073 128.567 139.933 128.427 139.813 128.32C140.373 128.067 140.94 127.767 141.513 127.42C142.1 127.073 142.64 126.713 143.133 126.34C143.627 125.953 144.033 125.587 144.353 125.24V124.96ZM131.933 121.52H148.893V126H147.393V122.88H133.373V126H131.933V121.52ZM146.233 118.32L147.813 118.86C147.387 119.473 146.92 120.093 146.413 120.72C145.92 121.347 145.467 121.88 145.053 122.32L143.853 121.8C144.12 121.493 144.4 121.14 144.693 120.74C145 120.327 145.287 119.913 145.553 119.5C145.833 119.073 146.06 118.68 146.233 118.32ZM133.313 119.02L134.573 118.44C134.96 118.853 135.333 119.32 135.693 119.84C136.067 120.347 136.333 120.8 136.493 121.2L135.173 121.86C135.013 121.473 134.753 121.013 134.393 120.48C134.033 119.947 133.673 119.46 133.313 119.02ZM138.453 118.6L139.753 118.1C140.087 118.58 140.407 119.113 140.713 119.7C141.033 120.273 141.26 120.767 141.393 121.18L139.993 121.74C139.887 121.313 139.68 120.807 139.373 120.22C139.08 119.62 138.773 119.08 138.453 118.6ZM159.373 126.32L160.493 125.5C161 125.94 161.533 126.42 162.093 126.94C162.653 127.447 163.2 127.967 163.733 128.5C164.267 129.02 164.767 129.527 165.233 130.02C165.7 130.5 166.093 130.933 166.413 131.32L165.173 132.3C164.867 131.9 164.487 131.453 164.033 130.96C163.593 130.467 163.107 129.947 162.573 129.4C162.053 128.853 161.513 128.32 160.953 127.8C160.407 127.267 159.88 126.773 159.373 126.32ZM159.593 118.2H161.113V122.12C161.113 122.76 161.073 123.433 160.993 124.14C160.927 124.847 160.787 125.567 160.573 126.3C160.373 127.033 160.06 127.767 159.633 128.5C159.22 129.233 158.667 129.94 157.973 130.62C157.28 131.3 156.42 131.947 155.393 132.56C155.327 132.44 155.227 132.313 155.093 132.18C154.973 132.047 154.84 131.907 154.693 131.76C154.56 131.613 154.433 131.5 154.313 131.42C155.313 130.887 156.14 130.313 156.793 129.7C157.447 129.073 157.96 128.433 158.333 127.78C158.72 127.113 159 126.453 159.173 125.8C159.347 125.147 159.46 124.507 159.513 123.88C159.567 123.253 159.593 122.66 159.593 122.1V118.2ZM152.313 121.62H167.593V123.1H153.793V136.64H152.313V121.62ZM166.913 121.62H168.393V134.62C168.393 135.113 168.327 135.487 168.193 135.74C168.06 136.007 167.827 136.207 167.493 136.34C167.133 136.46 166.64 136.527 166.013 136.54C165.4 136.567 164.647 136.58 163.753 136.58C163.727 136.433 163.687 136.267 163.633 136.08C163.58 135.907 163.52 135.727 163.453 135.54C163.387 135.353 163.313 135.193 163.233 135.06C163.713 135.073 164.167 135.08 164.593 135.08C165.033 135.093 165.413 135.1 165.733 135.1C166.067 135.1 166.293 135.1 166.413 135.1C166.613 135.087 166.747 135.047 166.813 134.98C166.88 134.9 166.913 134.773 166.913 134.6V121.62ZM188.913 122.32C188.82 122.427 188.727 122.533 188.633 122.64C188.54 122.733 188.467 122.833 188.413 122.94C188.04 123.553 187.587 124.22 187.053 124.94C186.533 125.66 185.94 126.4 185.273 127.16C184.607 127.92 183.88 128.667 183.093 129.4C182.32 130.133 181.487 130.82 180.593 131.46L179.353 130.36C180.167 129.8 180.927 129.193 181.633 128.54C182.34 127.887 182.987 127.227 183.573 126.56C184.173 125.88 184.693 125.233 185.133 124.62C185.587 124.007 185.94 123.46 186.193 122.98C185.94 122.98 185.56 122.98 185.053 122.98C184.547 122.98 183.96 122.98 183.293 122.98C182.627 122.98 181.92 122.98 181.173 122.98C180.44 122.98 179.707 122.98 178.973 122.98C178.253 122.98 177.58 122.98 176.953 122.98C176.327 122.98 175.787 122.98 175.333 122.98C174.893 122.98 174.593 122.98 174.433 122.98C174.18 122.98 173.92 122.987 173.653 123C173.387 123.013 173.14 123.027 172.913 123.04C172.7 123.053 172.527 123.073 172.393 123.1V121.3C172.58 121.327 172.787 121.353 173.013 121.38C173.24 121.407 173.473 121.427 173.713 121.44C173.967 121.453 174.207 121.46 174.433 121.46C174.58 121.46 174.867 121.46 175.293 121.46C175.733 121.46 176.267 121.46 176.893 121.46C177.52 121.46 178.193 121.46 178.913 121.46C179.647 121.46 180.387 121.46 181.133 121.46C181.893 121.46 182.613 121.46 183.293 121.46C183.987 121.46 184.6 121.46 185.133 121.46C185.667 121.46 186.073 121.46 186.353 121.46C186.927 121.46 187.36 121.407 187.653 121.3L188.913 122.32ZM179.493 131.82C179.187 131.513 178.827 131.173 178.413 130.8C178.013 130.427 177.593 130.053 177.153 129.68C176.713 129.293 176.3 128.947 175.913 128.64C175.527 128.32 175.193 128.067 174.913 127.88L176.213 126.82C176.44 126.993 176.74 127.233 177.113 127.54C177.487 127.833 177.893 128.167 178.333 128.54C178.787 128.913 179.233 129.293 179.673 129.68C180.113 130.067 180.513 130.44 180.873 130.8C181.3 131.2 181.74 131.64 182.193 132.12C182.66 132.6 183.1 133.067 183.513 133.52C183.927 133.973 184.273 134.38 184.553 134.74L183.093 135.9C182.853 135.553 182.527 135.147 182.113 134.68C181.713 134.2 181.28 133.713 180.813 133.22C180.347 132.713 179.907 132.247 179.493 131.82ZM199.993 123.48C200.087 123.68 200.207 123.98 200.353 124.38C200.5 124.767 200.653 125.18 200.813 125.62C200.987 126.06 201.14 126.48 201.273 126.88C201.407 127.267 201.507 127.573 201.573 127.8L200.093 128.32C200.04 128.093 199.947 127.787 199.813 127.4C199.693 127.013 199.553 126.6 199.393 126.16C199.233 125.707 199.073 125.287 198.913 124.9C198.753 124.513 198.627 124.207 198.533 123.98L199.993 123.48ZM207.233 124.6C207.167 124.8 207.107 124.987 207.053 125.16C207.013 125.32 206.973 125.467 206.933 125.6C206.667 126.693 206.307 127.767 205.853 128.82C205.4 129.86 204.813 130.833 204.093 131.74C203.173 132.913 202.133 133.893 200.973 134.68C199.827 135.467 198.693 136.073 197.573 136.5L196.253 135.16C197.027 134.92 197.807 134.6 198.593 134.2C199.393 133.8 200.147 133.32 200.853 132.76C201.573 132.2 202.207 131.58 202.753 130.9C203.233 130.313 203.66 129.653 204.033 128.92C204.42 128.187 204.74 127.407 204.993 126.58C205.247 125.753 205.42 124.913 205.513 124.06L207.233 124.6ZM195.353 124.48C195.46 124.707 195.593 125.013 195.753 125.4C195.913 125.787 196.08 126.213 196.253 126.68C196.44 127.133 196.613 127.573 196.773 128C196.947 128.413 197.08 128.747 197.173 129L195.653 129.56C195.573 129.307 195.453 128.967 195.293 128.54C195.147 128.1 194.98 127.647 194.793 127.18C194.607 126.713 194.427 126.287 194.253 125.9C194.093 125.513 193.967 125.233 193.873 125.06L195.353 124.48ZM226.433 120.64C226.433 121 226.56 121.313 226.813 121.58C227.08 121.833 227.393 121.96 227.753 121.96C228.127 121.96 228.44 121.833 228.693 121.58C228.96 121.313 229.093 121 229.093 120.64C229.093 120.267 228.96 119.953 228.693 119.7C228.44 119.433 228.127 119.3 227.753 119.3C227.393 119.3 227.08 119.433 226.813 119.7C226.56 119.953 226.433 120.267 226.433 120.64ZM225.513 120.64C225.513 120.227 225.613 119.853 225.813 119.52C226.027 119.173 226.3 118.9 226.633 118.7C226.967 118.487 227.34 118.38 227.753 118.38C228.167 118.38 228.54 118.487 228.873 118.7C229.22 118.9 229.493 119.173 229.693 119.52C229.907 119.853 230.013 120.227 230.013 120.64C230.013 121.053 229.907 121.427 229.693 121.76C229.493 122.093 229.22 122.367 228.873 122.58C228.54 122.78 228.167 122.88 227.753 122.88C227.34 122.88 226.967 122.78 226.633 122.58C226.3 122.367 226.027 122.093 225.813 121.76C225.613 121.427 225.513 121.053 225.513 120.64ZM227.253 121.98C227.187 122.113 227.127 122.267 227.073 122.44C227.033 122.6 226.993 122.78 226.953 122.98C226.847 123.5 226.707 124.08 226.533 124.72C226.36 125.36 226.147 126.02 225.893 126.7C225.653 127.367 225.373 128.013 225.053 128.64C224.733 129.267 224.373 129.84 223.973 130.36C223.36 131.133 222.68 131.853 221.933 132.52C221.187 133.187 220.333 133.787 219.373 134.32C218.413 134.853 217.32 135.313 216.093 135.7L214.733 134.2C216.04 133.88 217.167 133.48 218.113 133C219.073 132.52 219.913 131.98 220.633 131.38C221.353 130.767 221.987 130.107 222.533 129.4C223.013 128.787 223.427 128.1 223.773 127.34C224.133 126.567 224.433 125.793 224.673 125.02C224.913 124.233 225.073 123.52 225.153 122.88C224.967 122.88 224.613 122.88 224.093 122.88C223.573 122.88 222.96 122.88 222.253 122.88C221.547 122.88 220.807 122.88 220.033 122.88C219.273 122.88 218.54 122.88 217.833 122.88C217.127 122.88 216.513 122.88 215.993 122.88C215.473 122.88 215.12 122.88 214.933 122.88C214.533 122.88 214.167 122.887 213.833 122.9C213.5 122.913 213.2 122.927 212.933 122.94V121.16C213.12 121.187 213.327 121.213 213.553 121.24C213.78 121.253 214.013 121.267 214.253 121.28C214.493 121.293 214.72 121.3 214.933 121.3C215.093 121.3 215.38 121.3 215.793 121.3C216.207 121.3 216.693 121.3 217.253 121.3C217.827 121.3 218.433 121.3 219.073 121.3C219.727 121.3 220.367 121.3 220.993 121.3C221.633 121.3 222.227 121.3 222.773 121.3C223.333 121.3 223.807 121.3 224.193 121.3C224.58 121.3 224.84 121.3 224.973 121.3C225.12 121.3 225.287 121.293 225.473 121.28C225.66 121.267 225.847 121.24 226.033 121.2L227.253 121.98Z" fill="#3C373C"/>
<path d="M346.375 89.9999C345.472 89.9999 344.715 89.6973 344.104 89.092C343.493 88.4868 343.188 87.7368 343.188 86.842V80.3684C342.231 79.3157 341.461 78.1447 340.877 76.8552C340.292 75.5657 340 74.1578 340 72.6315V42.6315C340 38.2631 342.045 35.0657 346.136 33.0394C350.227 31.0131 356.681 29.9999 365.5 29.9999C374.638 29.9999 381.172 30.9736 385.103 32.921C389.034 34.8684 391 38.1052 391 42.6315V72.6315C391 74.1578 390.708 75.5657 390.123 76.8552C389.539 78.1447 388.769 79.3157 387.813 80.3684V86.842C387.813 87.7368 387.507 88.4868 386.896 89.092C386.285 89.6973 385.528 89.9999 384.625 89.9999H381.438C380.534 89.9999 379.777 89.6973 379.166 89.092C378.556 88.4868 378.25 87.7368 378.25 86.842V83.6841H352.75V86.842C352.75 87.7368 352.445 88.4868 351.834 89.092C351.223 89.6973 350.466 89.9999 349.563 89.9999H346.375ZM365.659 39.4736H383.509H347.809H365.659ZM378.25 61.5789H346.375H384.625H378.25ZM346.375 55.2631H384.625V45.7894H346.375V55.2631ZM354.344 74.2105C355.672 74.2105 356.801 73.7499 357.73 72.8289C358.66 71.9078 359.125 70.7894 359.125 69.4736C359.125 68.1578 358.66 67.0394 357.73 66.1184C356.801 65.1973 355.672 64.7368 354.344 64.7368C353.016 64.7368 351.887 65.1973 350.957 66.1184C350.027 67.0394 349.563 68.1578 349.563 69.4736C349.563 70.7894 350.027 71.9078 350.957 72.8289C351.887 73.7499 353.016 74.2105 354.344 74.2105ZM376.656 74.2105C377.984 74.2105 379.113 73.7499 380.043 72.8289C380.973 71.9078 381.438 70.7894 381.438 69.4736C381.438 68.1578 380.973 67.0394 380.043 66.1184C379.113 65.1973 377.984 64.7368 376.656 64.7368C375.328 64.7368 374.199 65.1973 373.27 66.1184C372.34 67.0394 371.875 68.1578 371.875 69.4736C371.875 70.7894 372.34 71.9078 373.27 72.8289C374.199 73.7499 375.328 74.2105 376.656 74.2105ZM347.809 39.4736H383.509C382.713 38.5789 380.999 37.8289 378.37 37.2236C375.74 36.6184 371.503 36.3157 365.659 36.3157C359.975 36.3157 355.818 36.6447 353.188 37.3026C350.559 37.9605 348.766 38.6841 347.809 39.4736ZM352.75 77.3684H378.25C380.003 77.3684 381.504 76.7499 382.752 75.5131C384.001 74.2763 384.625 72.7894 384.625 71.0526V61.5789H346.375V71.0526C346.375 72.7894 346.999 74.2763 348.248 75.5131C349.496 76.7499 350.997 77.3684 352.75 77.3684Z" fill="#3C373C"/>
<path d="M320.3 119.42C320.473 119.647 320.66 119.927 320.86 120.26C321.06 120.58 321.253 120.907 321.44 121.24C321.64 121.573 321.807 121.88 321.94 122.16L320.86 122.64C320.66 122.227 320.407 121.76 320.1 121.24C319.793 120.707 319.507 120.247 319.24 119.86L320.3 119.42ZM322.5 118.62C322.687 118.86 322.88 119.147 323.08 119.48C323.293 119.813 323.5 120.147 323.7 120.48C323.9 120.8 324.06 121.087 324.18 121.34L323.1 121.82C322.887 121.38 322.627 120.907 322.32 120.4C322.027 119.88 321.733 119.433 321.44 119.06L322.5 118.62ZM309.36 128.98C309.573 128.46 309.78 127.893 309.98 127.28C310.193 126.667 310.387 126.033 310.56 125.38C310.747 124.713 310.907 124.06 311.04 123.42C311.173 122.767 311.267 122.147 311.32 121.56L313.1 121.94C313.073 122.087 313.033 122.247 312.98 122.42C312.927 122.58 312.88 122.747 312.84 122.92C312.8 123.093 312.767 123.253 312.74 123.4C312.673 123.707 312.58 124.107 312.46 124.6C312.34 125.093 312.2 125.633 312.04 126.22C311.88 126.807 311.707 127.4 311.52 128C311.333 128.587 311.133 129.133 310.92 129.64C310.68 130.253 310.4 130.887 310.08 131.54C309.773 132.18 309.44 132.807 309.08 133.42C308.72 134.033 308.353 134.607 307.98 135.14L306.28 134.42C306.907 133.58 307.487 132.673 308.02 131.7C308.567 130.713 309.013 129.807 309.36 128.98ZM319.2 128.22C319 127.7 318.78 127.153 318.54 126.58C318.3 126.007 318.047 125.433 317.78 124.86C317.513 124.273 317.253 123.727 317 123.22C316.76 122.7 316.527 122.26 316.3 121.9L317.92 121.36C318.12 121.707 318.34 122.133 318.58 122.64C318.833 123.147 319.093 123.687 319.36 124.26C319.627 124.833 319.887 125.413 320.14 126C320.393 126.587 320.627 127.147 320.84 127.68C321.04 128.173 321.253 128.727 321.48 129.34C321.707 129.94 321.927 130.553 322.14 131.18C322.367 131.793 322.573 132.393 322.76 132.98C322.947 133.553 323.107 134.067 323.24 134.52L321.46 135.1C321.3 134.42 321.093 133.687 320.84 132.9C320.6 132.1 320.34 131.3 320.06 130.5C319.78 129.687 319.493 128.927 319.2 128.22ZM341 121.62C340.933 121.7 340.847 121.833 340.74 122.02C340.647 122.193 340.567 122.353 340.5 122.5C340.247 123.153 339.913 123.88 339.5 124.68C339.087 125.467 338.627 126.247 338.12 127.02C337.613 127.793 337.08 128.493 336.52 129.12C335.787 129.947 334.98 130.753 334.1 131.54C333.22 132.313 332.293 133.04 331.32 133.72C330.347 134.387 329.333 134.96 328.28 135.44L327 134.1C328.08 133.673 329.113 133.147 330.1 132.52C331.1 131.88 332.033 131.187 332.9 130.44C333.78 129.68 334.56 128.92 335.24 128.16C335.693 127.64 336.14 127.06 336.58 126.42C337.033 125.767 337.433 125.107 337.78 124.44C338.14 123.76 338.4 123.147 338.56 122.6C338.453 122.6 338.2 122.6 337.8 122.6C337.4 122.6 336.927 122.6 336.38 122.6C335.833 122.6 335.26 122.6 334.66 122.6C334.06 122.6 333.487 122.6 332.94 122.6C332.393 122.6 331.92 122.6 331.52 122.6C331.133 122.6 330.88 122.6 330.76 122.6C330.533 122.6 330.273 122.607 329.98 122.62C329.7 122.633 329.44 122.647 329.2 122.66C328.973 122.673 328.82 122.687 328.74 122.7V120.88C328.833 120.893 329 120.913 329.24 120.94C329.493 120.953 329.76 120.967 330.04 120.98C330.32 120.993 330.56 121 330.76 121C330.907 121 331.173 121 331.56 121C331.947 121 332.407 121 332.94 121C333.487 121 334.053 121 334.64 121C335.227 121 335.787 121 336.32 121C336.867 121 337.333 121 337.72 121C338.107 121 338.36 121 338.48 121C338.813 121 339.107 120.987 339.36 120.96C339.627 120.933 339.833 120.893 339.98 120.84L341 121.62ZM336.78 128.06C337.327 128.513 337.887 129.013 338.46 129.56C339.047 130.107 339.62 130.673 340.18 131.26C340.74 131.833 341.26 132.387 341.74 132.92C342.22 133.44 342.633 133.913 342.98 134.34L341.58 135.54C341.113 134.9 340.553 134.213 339.9 133.48C339.247 132.733 338.553 131.993 337.82 131.26C337.1 130.513 336.373 129.827 335.64 129.2L336.78 128.06ZM356.28 121.34C356.147 122.38 355.973 123.467 355.76 124.6C355.56 125.733 355.3 126.833 354.98 127.9C354.58 129.273 354.133 130.42 353.64 131.34C353.16 132.26 352.64 132.953 352.08 133.42C351.52 133.887 350.933 134.12 350.32 134.12C349.733 134.12 349.167 133.907 348.62 133.48C348.073 133.053 347.627 132.44 347.28 131.64C346.933 130.827 346.76 129.873 346.76 128.78C346.76 127.687 346.98 126.653 347.42 125.68C347.873 124.707 348.493 123.847 349.28 123.1C350.08 122.34 351.013 121.74 352.08 121.3C353.147 120.86 354.287 120.64 355.5 120.64C356.673 120.64 357.727 120.833 358.66 121.22C359.607 121.607 360.413 122.14 361.08 122.82C361.747 123.487 362.26 124.267 362.62 125.16C362.98 126.04 363.16 126.987 363.16 128C363.16 129.4 362.86 130.633 362.26 131.7C361.673 132.767 360.82 133.633 359.7 134.3C358.593 134.967 357.247 135.407 355.66 135.62L354.72 134.14C355.04 134.1 355.347 134.06 355.64 134.02C355.933 133.98 356.2 133.933 356.44 133.88C357.08 133.733 357.7 133.507 358.3 133.2C358.913 132.88 359.46 132.48 359.94 132C360.42 131.507 360.8 130.927 361.08 130.26C361.373 129.58 361.52 128.807 361.52 127.94C361.52 127.127 361.387 126.373 361.12 125.68C360.853 124.973 360.46 124.353 359.94 123.82C359.42 123.287 358.787 122.867 358.04 122.56C357.293 122.253 356.44 122.1 355.48 122.1C354.387 122.1 353.393 122.3 352.5 122.7C351.62 123.1 350.867 123.627 350.24 124.28C349.627 124.92 349.153 125.627 348.82 126.4C348.487 127.16 348.32 127.907 348.32 128.64C348.32 129.48 348.427 130.173 348.64 130.72C348.867 131.253 349.133 131.647 349.44 131.9C349.76 132.153 350.073 132.28 350.38 132.28C350.7 132.28 351.027 132.127 351.36 131.82C351.693 131.5 352.033 130.993 352.38 130.3C352.727 129.593 353.067 128.68 353.4 127.56C353.693 126.6 353.94 125.58 354.14 124.5C354.353 123.42 354.507 122.36 354.6 121.32L356.28 121.34ZM373.42 120.58H383.44V121.92H373.42V120.58ZM372.58 124.46H384.28V125.82H372.58V124.46ZM372.68 128.08H384.08V129.42H372.68V128.08ZM377.62 118.18H379.1V125.3H377.62V118.18ZM380.26 125.6H381.74V134.82C381.74 135.247 381.68 135.573 381.56 135.8C381.44 136.04 381.227 136.213 380.92 136.32C380.6 136.44 380.18 136.513 379.66 136.54C379.14 136.567 378.473 136.58 377.66 136.58C377.633 136.38 377.567 136.14 377.46 135.86C377.367 135.593 377.267 135.36 377.16 135.16C377.773 135.173 378.333 135.18 378.84 135.18C379.347 135.193 379.68 135.193 379.84 135.18C380 135.18 380.107 135.153 380.16 135.1C380.227 135.047 380.26 134.947 380.26 134.8V125.6ZM373.9 130.82L375.1 130.12C375.433 130.453 375.773 130.827 376.12 131.24C376.467 131.653 376.78 132.06 377.06 132.46C377.353 132.86 377.573 133.227 377.72 133.56L376.44 134.34C376.293 134.007 376.08 133.64 375.8 133.24C375.533 132.827 375.233 132.413 374.9 132C374.567 131.573 374.233 131.18 373.9 130.82ZM367.24 119.5H372.24V132.66H367.24V131.3H370.82V120.88H367.24V119.5ZM367.3 125.32H371.48V126.68H367.3V125.32ZM366.52 119.5H367.92V134.3H366.52V119.5ZM397.4 120.42H398.84V131.58H397.4V120.42ZM401.82 118.6H403.28V134.68C403.28 135.16 403.213 135.527 403.08 135.78C402.947 136.033 402.733 136.22 402.44 136.34C402.147 136.46 401.733 136.54 401.2 136.58C400.667 136.62 399.98 136.633 399.14 136.62C399.1 136.42 399.033 136.173 398.94 135.88C398.847 135.6 398.747 135.347 398.64 135.12C399.253 135.147 399.813 135.16 400.32 135.16C400.827 135.16 401.167 135.153 401.34 135.14C401.527 135.14 401.653 135.107 401.72 135.04C401.787 134.973 401.82 134.853 401.82 134.68V118.6ZM386.04 120.8H396.44V122.16H386.04V120.8ZM390.54 118.32H392V121.62H390.54V118.32ZM386 125.48L386.86 124.48C387.327 124.773 387.813 125.107 388.32 125.48C388.84 125.853 389.32 126.227 389.76 126.6C390.213 126.973 390.58 127.313 390.86 127.62L389.94 128.74C389.687 128.42 389.333 128.067 388.88 127.68C388.44 127.293 387.967 126.907 387.46 126.52C386.953 126.133 386.467 125.787 386 125.48ZM391.46 132.52L392.56 131.58C393.027 131.953 393.513 132.373 394.02 132.84C394.54 133.293 395.033 133.74 395.5 134.18C395.967 134.607 396.34 134.993 396.62 135.34L395.46 136.4C395.18 136.053 394.813 135.653 394.36 135.2C393.92 134.747 393.44 134.287 392.92 133.82C392.413 133.34 391.927 132.907 391.46 132.52ZM390.22 121.56L391.64 122.2C391.147 122.893 390.607 123.607 390.02 124.34C389.433 125.073 388.88 125.7 388.36 126.22L387.24 125.64C387.587 125.28 387.94 124.867 388.3 124.4C388.66 123.92 389.007 123.433 389.34 122.94C389.687 122.433 389.98 121.973 390.22 121.56ZM393.44 123.7L394.76 124.22C394.16 125.233 393.447 126.213 392.62 127.16C391.793 128.107 390.893 128.98 389.92 129.78C388.96 130.567 387.973 131.247 386.96 131.82C386.853 131.647 386.7 131.46 386.5 131.26C386.313 131.06 386.127 130.887 385.94 130.74C386.927 130.22 387.893 129.593 388.84 128.86C389.787 128.113 390.66 127.3 391.46 126.42C392.26 125.527 392.92 124.62 393.44 123.7ZM394.92 127.48L396.24 128.06C395.533 129.247 394.68 130.38 393.68 131.46C392.68 132.527 391.58 133.5 390.38 134.38C389.193 135.247 387.947 135.987 386.64 136.6C386.533 136.427 386.38 136.22 386.18 135.98C385.993 135.753 385.807 135.567 385.62 135.42C386.887 134.86 388.107 134.173 389.28 133.36C390.453 132.533 391.527 131.62 392.5 130.62C393.473 129.62 394.28 128.573 394.92 127.48ZM407 119.86H423.04V121.18H407V119.86ZM407.9 122.82H422.26V124.06H407.9V122.82ZM406.26 125.88H423.74V127.18H406.26V125.88ZM414.2 118.2H415.72V126.9H414.2V118.2ZM414.14 126.32L415.42 126.94C414.9 127.5 414.293 128.053 413.6 128.6C412.907 129.133 412.16 129.633 411.36 130.1C410.573 130.567 409.767 130.993 408.94 131.38C408.113 131.753 407.313 132.067 406.54 132.32C406.473 132.2 406.38 132.067 406.26 131.92C406.14 131.76 406.02 131.607 405.9 131.46C405.78 131.313 405.667 131.187 405.56 131.08C406.333 130.867 407.127 130.593 407.94 130.26C408.753 129.913 409.54 129.533 410.3 129.12C411.073 128.693 411.787 128.247 412.44 127.78C413.107 127.3 413.673 126.813 414.14 126.32ZM416.32 126.52C416.72 127.933 417.273 129.22 417.98 130.38C418.7 131.54 419.587 132.533 420.64 133.36C421.707 134.173 422.947 134.793 424.36 135.22C424.253 135.313 424.133 135.44 424 135.6C423.88 135.76 423.76 135.92 423.64 136.08C423.533 136.24 423.44 136.393 423.36 136.54C421.893 136.033 420.613 135.327 419.52 134.42C418.44 133.5 417.52 132.4 416.76 131.12C416.013 129.84 415.413 128.4 414.96 126.8L416.32 126.52ZM422.02 127.86L423.2 128.78C422.733 129.153 422.22 129.533 421.66 129.92C421.113 130.307 420.56 130.68 420 131.04C419.453 131.387 418.94 131.693 418.46 131.96L417.52 131.12C418 130.84 418.513 130.513 419.06 130.14C419.607 129.767 420.14 129.38 420.66 128.98C421.18 128.58 421.633 128.207 422.02 127.86ZM407.8 135.2C408.56 135.04 409.447 134.84 410.46 134.6C411.473 134.347 412.547 134.08 413.68 133.8C414.827 133.52 415.967 133.24 417.1 132.96L417.26 134.3C416.207 134.58 415.14 134.853 414.06 135.12C412.98 135.4 411.947 135.66 410.96 135.9C409.973 136.153 409.08 136.387 408.28 136.6L407.8 135.2ZM410.62 130.04L411.7 128.96L412.1 129.08V135.12H410.62V130.04Z" fill="#3C373C"/>
<path d="M525.667 87C524.017 87 522.604 86.4125 521.429 85.2375C520.254 84.0625 519.667 82.65 519.667 81V39C519.667 37.35 520.254 35.9375 521.429 34.7625C522.604 33.5875 524.017 33 525.667 33H573.667C575.317 33 576.729 33.5875 577.904 34.7625C579.079 35.9375 579.667 37.35 579.667 39V81C579.667 82.65 579.079 84.0625 577.904 85.2375C576.729 86.4125 575.317 87 573.667 87H525.667ZM525.667 81H573.667V39H525.667V81ZM528.667 75H543.667V69H528.667V75ZM557.317 69L572.167 54.15L567.892 49.875L557.317 60.525L553.042 56.25L548.842 60.525L557.317 69ZM528.667 63H543.667V57H528.667V63ZM528.667 51H543.667V45H528.667V51Z" fill="#3C373C"/>
<path d="M537.787 128.52H548.587V129.86H537.787V128.52ZM544.367 129.28C544.713 129.933 545.147 130.593 545.667 131.26C546.187 131.913 546.74 132.513 547.327 133.06C547.927 133.607 548.513 134.06 549.087 134.42C548.98 134.5 548.853 134.613 548.707 134.76C548.573 134.893 548.447 135.027 548.327 135.16C548.22 135.307 548.127 135.44 548.047 135.56C547.473 135.147 546.887 134.62 546.287 133.98C545.7 133.34 545.14 132.653 544.607 131.92C544.087 131.173 543.64 130.44 543.267 129.72L544.367 129.28ZM539.887 123.54V125.62H546.587V123.54H539.887ZM539.887 120.28V122.32H546.587V120.28H539.887ZM538.547 119.04H547.987V126.84H538.547V119.04ZM542.107 129.2L543.247 129.6C542.887 130.413 542.433 131.213 541.887 132C541.34 132.773 540.74 133.48 540.087 134.12C539.447 134.76 538.8 135.287 538.147 135.7C538.067 135.58 537.967 135.447 537.847 135.3C537.727 135.167 537.607 135.033 537.487 134.9C537.367 134.767 537.247 134.653 537.127 134.56C537.78 134.2 538.42 133.74 539.047 133.18C539.687 132.62 540.273 131.993 540.807 131.3C541.34 130.607 541.773 129.907 542.107 129.2ZM542.547 119.66H543.867V126.26H543.927V136.58H542.487V126.26H542.547V119.66ZM531.327 124.26H537.007V125.44H531.327V124.26ZM531.407 118.9H536.947V120.1H531.407V118.9ZM531.327 126.92H537.007V128.12H531.327V126.92ZM530.427 121.52H537.527V122.78H530.427V121.52ZM532.007 129.62H537.027V135.46H532.007V134.22H535.727V130.88H532.007V129.62ZM531.307 129.62H532.587V136.38H531.307V129.62ZM553.127 122.7V124.22H557.027V122.7H553.127ZM553.127 120.14V121.64H557.027V120.14H553.127ZM551.767 119.04H558.427V125.32H551.767V119.04ZM550.587 126.8H559.607V127.98H550.587V126.8ZM559.487 119.18H568.607V120.32H559.487V119.18ZM554.567 127.16H555.867V134.78L554.567 134V127.16ZM555.247 130.12H559.267V131.28H555.247V130.12ZM563.447 119.46L564.847 119.74C564.66 120.247 564.467 120.767 564.267 121.3C564.08 121.833 563.893 122.287 563.707 122.66L562.587 122.4C562.747 121.973 562.907 121.487 563.067 120.94C563.227 120.393 563.353 119.9 563.447 119.46ZM561.627 125.52V127.02H566.387V125.52H561.627ZM561.627 128.08V129.6H566.387V128.08H561.627ZM561.627 122.96V124.46H566.387V122.96H561.627ZM560.247 121.86H567.787V130.72H560.247V121.86ZM561.907 131.06L563.187 131.44C562.747 132 562.193 132.547 561.527 133.08C560.873 133.613 560.233 134.053 559.607 134.4C559.54 134.32 559.447 134.22 559.327 134.1C559.207 133.98 559.08 133.86 558.947 133.74C558.827 133.62 558.713 133.533 558.607 133.48C559.233 133.173 559.847 132.813 560.447 132.4C561.047 131.973 561.533 131.527 561.907 131.06ZM551.967 129.06H553.247C553.207 130.033 553.12 130.993 552.987 131.94C552.867 132.873 552.673 133.753 552.407 134.58C552.14 135.393 551.767 136.087 551.287 136.66C551.193 136.5 551.053 136.32 550.867 136.12C550.68 135.933 550.507 135.787 550.347 135.68C550.747 135.2 551.06 134.6 551.287 133.88C551.513 133.147 551.673 132.367 551.767 131.54C551.873 130.713 551.94 129.887 551.967 129.06ZM552.907 131.04C553.267 131.893 553.727 132.58 554.287 133.1C554.847 133.607 555.507 133.993 556.267 134.26C557.04 134.527 557.9 134.707 558.847 134.8C559.793 134.88 560.827 134.92 561.947 134.92C562.133 134.92 562.453 134.92 562.907 134.92C563.36 134.92 563.88 134.92 564.467 134.92C565.067 134.907 565.667 134.9 566.267 134.9C566.88 134.9 567.427 134.9 567.907 134.9C568.387 134.887 568.747 134.88 568.987 134.88C568.893 135.027 568.793 135.227 568.687 135.48C568.58 135.733 568.5 135.96 568.447 136.16H567.087H561.947C560.68 136.16 559.52 136.1 558.467 135.98C557.427 135.873 556.493 135.653 555.667 135.32C554.853 134.987 554.133 134.507 553.507 133.88C552.893 133.24 552.387 132.407 551.987 131.38L552.907 131.04ZM564.707 131.62L565.747 131.02C566.133 131.26 566.52 131.533 566.907 131.84C567.307 132.147 567.68 132.453 568.027 132.76C568.373 133.067 568.653 133.353 568.867 133.62L567.787 134.32C567.573 134.04 567.293 133.74 566.947 133.42C566.6 133.1 566.233 132.78 565.847 132.46C565.46 132.14 565.08 131.86 564.707 131.62Z" fill="#3C373C"/>
<path d="M157 251C155.167 251 153.597 250.344 152.292 249.032C150.986 247.72 150.333 246.142 150.333 244.3V197.4C150.333 195.557 150.986 193.98 152.292 192.668C153.597 191.356 155.167 190.7 157 190.7H160.333V184H167V190.7H193.667V184H200.333V190.7H203.667C205.5 190.7 207.069 191.356 208.375 192.668C209.681 193.98 210.333 195.557 210.333 197.4V244.3C210.333 246.142 209.681 247.72 208.375 249.032C207.069 250.344 205.5 251 203.667 251H157ZM157 244.3H203.667V210.8H157V244.3ZM157 204.1H203.667V197.4H157V204.1ZM180.333 224.2C179.389 224.2 178.597 223.879 177.958 223.237C177.319 222.595 177 221.799 177 220.85C177 219.901 177.319 219.105 177.958 218.463C178.597 217.821 179.389 217.5 180.333 217.5C181.278 217.5 182.069 217.821 182.708 218.463C183.347 219.105 183.667 219.901 183.667 220.85C183.667 221.799 183.347 222.595 182.708 223.237C182.069 223.879 181.278 224.2 180.333 224.2ZM167 224.2C166.056 224.2 165.264 223.879 164.625 223.237C163.986 222.595 163.667 221.799 163.667 220.85C163.667 219.901 163.986 219.105 164.625 218.463C165.264 217.821 166.056 217.5 167 217.5C167.944 217.5 168.736 217.821 169.375 218.463C170.014 219.105 170.333 219.901 170.333 220.85C170.333 221.799 170.014 222.595 169.375 223.237C168.736 223.879 167.944 224.2 167 224.2ZM193.667 224.2C192.722 224.2 191.931 223.879 191.292 223.237C190.653 222.595 190.333 221.799 190.333 220.85C190.333 219.901 190.653 219.105 191.292 218.463C191.931 217.821 192.722 217.5 193.667 217.5C194.611 217.5 195.403 217.821 196.042 218.463C196.681 219.105 197 219.901 197 220.85C197 221.799 196.681 222.595 196.042 223.237C195.403 223.879 194.611 224.2 193.667 224.2ZM180.333 237.6C179.389 237.6 178.597 237.279 177.958 236.637C177.319 235.995 177 235.199 177 234.25C177 233.301 177.319 232.505 177.958 231.863C178.597 231.221 179.389 230.9 180.333 230.9C181.278 230.9 182.069 231.221 182.708 231.863C183.347 232.505 183.667 233.301 183.667 234.25C183.667 235.199 183.347 235.995 182.708 236.637C182.069 237.279 181.278 237.6 180.333 237.6ZM167 237.6C166.056 237.6 165.264 237.279 164.625 236.637C163.986 235.995 163.667 235.199 163.667 234.25C163.667 233.301 163.986 232.505 164.625 231.863C165.264 231.221 166.056 230.9 167 230.9C167.944 230.9 168.736 231.221 169.375 231.863C170.014 232.505 170.333 233.301 170.333 234.25C170.333 235.199 170.014 235.995 169.375 236.637C168.736 237.279 167.944 237.6 167 237.6ZM193.667 237.6C192.722 237.6 191.931 237.279 191.292 236.637C190.653 235.995 190.333 235.199 190.333 234.25C190.333 233.301 190.653 232.505 191.292 231.863C191.931 231.221 192.722 230.9 193.667 230.9C194.611 230.9 195.403 231.221 196.042 231.863C196.681 232.505 197 233.301 197 234.25C197 235.199 196.681 235.995 196.042 236.637C195.403 237.279 194.611 237.6 193.667 237.6Z" fill="#3C373C"/>
<path d="M158.753 278.58H168.773V279.92H158.753V278.58ZM157.913 282.46H169.613V283.82H157.913V282.46ZM158.013 286.08H169.413V287.42H158.013V286.08ZM162.953 276.18H164.433V283.3H162.953V276.18ZM165.593 283.6H167.073V292.82C167.073 293.247 167.013 293.573 166.893 293.8C166.773 294.04 166.56 294.213 166.253 294.32C165.933 294.44 165.513 294.513 164.993 294.54C164.473 294.567 163.807 294.58 162.993 294.58C162.967 294.38 162.9 294.14 162.793 293.86C162.7 293.593 162.6 293.36 162.493 293.16C163.107 293.173 163.667 293.18 164.173 293.18C164.68 293.193 165.013 293.193 165.173 293.18C165.333 293.18 165.44 293.153 165.493 293.1C165.56 293.047 165.593 292.947 165.593 292.8V283.6ZM159.233 288.82L160.433 288.12C160.767 288.453 161.107 288.827 161.453 289.24C161.8 289.653 162.113 290.06 162.393 290.46C162.687 290.86 162.907 291.227 163.053 291.56L161.773 292.34C161.627 292.007 161.413 291.64 161.133 291.24C160.867 290.827 160.567 290.413 160.233 290C159.9 289.573 159.567 289.18 159.233 288.82ZM152.573 277.5H157.573V290.66H152.573V289.3H156.153V278.88H152.573V277.5ZM152.633 283.32H156.813V284.68H152.633V283.32ZM151.853 277.5H153.253V292.3H151.853V277.5ZM177.293 288.46H183.353V289.62H177.293V288.46ZM177.213 285.44H184.033V292.74H177.213V291.56H182.633V286.62H177.213V285.44ZM176.573 285.44H177.933V293.76H176.573V285.44ZM172.873 279.9H178.433V281H172.873V279.9ZM182.093 279.9H187.773V281H182.093V279.9ZM187.133 277.06H188.653V292.62C188.653 293.087 188.587 293.453 188.453 293.72C188.333 293.987 188.107 294.187 187.773 294.32C187.453 294.453 187.013 294.533 186.453 294.56C185.907 294.587 185.22 294.6 184.393 294.6C184.367 294.453 184.327 294.287 184.273 294.1C184.22 293.913 184.153 293.727 184.073 293.54C184.007 293.353 183.94 293.193 183.873 293.06C184.273 293.073 184.66 293.08 185.033 293.08C185.42 293.08 185.76 293.08 186.053 293.08C186.347 293.08 186.553 293.08 186.673 293.08C186.847 293.067 186.967 293.027 187.033 292.96C187.1 292.893 187.133 292.773 187.133 292.6V277.06ZM172.993 277.06H179.393V283.92H172.993V282.78H177.993V278.22H172.993V277.06ZM187.893 277.06V278.22H182.633V282.8H187.893V283.96H181.213V277.06H187.893ZM172.133 277.06H173.633V294.62H172.133V277.06ZM203.193 278.36H204.633V289.4H203.193V278.36ZM207.293 276.54H208.753V292.52C208.753 293.027 208.687 293.407 208.553 293.66C208.42 293.927 208.2 294.12 207.893 294.24C207.573 294.373 207.133 294.453 206.573 294.48C206.013 294.52 205.347 294.54 204.573 294.54C204.56 294.393 204.52 294.227 204.453 294.04C204.4 293.853 204.34 293.66 204.273 293.46C204.207 293.273 204.133 293.107 204.053 292.96C204.68 292.973 205.253 292.987 205.773 293C206.307 293 206.667 292.993 206.853 292.98C207.013 292.967 207.127 292.933 207.193 292.88C207.26 292.827 207.293 292.713 207.293 292.54V276.54ZM193.353 292.34H200.073V293.54H193.353V292.34ZM191.433 286.04H201.773V287.24H191.433V286.04ZM192.533 281.12H200.833V282.26H192.533V281.12ZM192.653 283.58H200.613V284.68H192.653V283.58ZM195.933 276.26H197.373V278.74H195.933V276.26ZM195.953 279.82H197.353V286.7H195.953V279.82ZM192.653 288.36H200.853V294.32H199.433V289.54H194.033V294.54H192.653V288.36ZM191.453 278.06H201.993V281.22H200.593V279.24H192.793V281.22H191.453V278.06Z" fill="#3C373C"/>
<path d="M341.667 251.667C339.833 251.667 338.264 251.014 336.958 249.708C335.653 248.403 335 246.833 335 245V198.333C335 196.5 335.653 194.931 336.958 193.625C338.264 192.319 339.833 191.667 341.667 191.667H345V185H351.667V191.667H378.333V185H385V191.667H388.333C390.167 191.667 391.736 192.319 393.042 193.625C394.347 194.931 395 196.5 395 198.333V245C395 246.833 394.347 248.403 393.042 249.708C391.736 251.014 390.167 251.667 388.333 251.667H341.667ZM341.667 245H388.333V211.667H341.667V245ZM341.667 205H388.333V198.333H341.667V205Z" fill="#3C373C"/>
<path d="M366.54 217.34H368.9V235.8H366.54V217.34ZM361.42 221.88H374.16V224.2H361.42V221.88ZM369.4 222.62C369.667 223.46 369.987 224.3 370.36 225.14C370.733 225.98 371.153 226.793 371.62 227.58C372.087 228.367 372.587 229.093 373.12 229.76C373.653 230.427 374.2 231 374.76 231.48C374.573 231.627 374.36 231.813 374.12 232.04C373.893 232.253 373.673 232.48 373.46 232.72C373.26 232.96 373.093 233.193 372.96 233.42C372.387 232.833 371.833 232.16 371.3 231.4C370.767 230.627 370.267 229.793 369.8 228.9C369.333 227.993 368.907 227.053 368.52 226.08C368.147 225.107 367.807 224.127 367.5 223.14L369.4 222.62ZM366.14 222.7L368.2 223.3C367.773 224.633 367.253 225.94 366.64 227.22C366.04 228.487 365.367 229.66 364.62 230.74C363.887 231.82 363.1 232.747 362.26 233.52C362.127 233.32 361.953 233.1 361.74 232.86C361.527 232.62 361.307 232.393 361.08 232.18C360.867 231.953 360.667 231.767 360.48 231.62C361.28 230.98 362.04 230.18 362.76 229.22C363.48 228.247 364.133 227.2 364.72 226.08C365.307 224.947 365.78 223.82 366.14 222.7ZM360.32 217.12L362.7 217.88C362.233 219.053 361.68 220.227 361.04 221.4C360.4 222.56 359.7 223.653 358.94 224.68C358.193 225.693 357.42 226.587 356.62 227.36C356.54 227.16 356.413 226.9 356.24 226.58C356.08 226.26 355.907 225.94 355.72 225.62C355.533 225.287 355.367 225.02 355.22 224.82C355.9 224.207 356.553 223.493 357.18 222.68C357.82 221.853 358.407 220.967 358.94 220.02C359.487 219.073 359.947 218.107 360.32 217.12ZM358.26 222.88L360.6 220.54L360.64 220.58V235.76H358.26V222.88Z" fill="#3C373C"/>
<path d="M336.76 276.48H338.24V294.6H336.76V276.48ZM331.12 281.3H344.06V282.76H331.12V281.3ZM338.78 281.78C339.073 282.647 339.427 283.52 339.84 284.4C340.267 285.267 340.733 286.107 341.24 286.92C341.76 287.733 342.3 288.473 342.86 289.14C343.433 289.807 344.007 290.38 344.58 290.86C344.473 290.953 344.347 291.067 344.2 291.2C344.053 291.333 343.913 291.473 343.78 291.62C343.647 291.767 343.533 291.907 343.44 292.04C342.867 291.507 342.293 290.873 341.72 290.14C341.16 289.407 340.62 288.6 340.1 287.72C339.593 286.84 339.12 285.927 338.68 284.98C338.253 284.033 337.88 283.087 337.56 282.14L338.78 281.78ZM336.32 281.8L337.62 282.18C337.18 283.5 336.64 284.787 336 286.04C335.373 287.293 334.673 288.447 333.9 289.5C333.14 290.553 332.347 291.44 331.52 292.16C331.44 292.027 331.333 291.887 331.2 291.74C331.067 291.593 330.927 291.453 330.78 291.32C330.647 291.173 330.52 291.06 330.4 290.98C331.213 290.353 331.993 289.553 332.74 288.58C333.487 287.593 334.167 286.513 334.78 285.34C335.407 284.167 335.92 282.987 336.32 281.8ZM330.88 276.32L332.36 276.78C331.893 277.94 331.34 279.08 330.7 280.2C330.06 281.32 329.367 282.367 328.62 283.34C327.887 284.313 327.12 285.173 326.32 285.92C326.267 285.787 326.18 285.627 326.06 285.44C325.953 285.24 325.84 285.047 325.72 284.86C325.6 284.66 325.493 284.507 325.4 284.4C326.147 283.747 326.86 283 327.54 282.16C328.22 281.307 328.84 280.387 329.4 279.4C329.973 278.4 330.467 277.373 330.88 276.32ZM328.68 281.64L330.14 280.16L330.16 280.2V294.56H328.68V281.64ZM353.16 277.92H363.96V279.06H353.16V277.92ZM352.62 282.78H364.24V283.98H352.62V282.78ZM352.6 290.2H364.28V291.44H352.6V290.2ZM354.5 287.74H362.6V288.76H354.5V287.74ZM353.56 280.3H363.56V281.44H353.56V280.3ZM355.54 276.2H356.9V283.32H355.54V276.2ZM360.1 276.2H361.48V283.32H360.1V276.2ZM357.76 283.34H359.04V290.92H357.76V283.34ZM361.78 285.12H363.16V293.08C363.16 293.453 363.113 293.733 363.02 293.92C362.927 294.12 362.747 294.28 362.48 294.4C362.213 294.493 361.853 294.547 361.4 294.56C360.947 294.587 360.38 294.6 359.7 294.6C359.673 294.413 359.62 294.207 359.54 293.98C359.473 293.753 359.393 293.553 359.3 293.38C359.793 293.393 360.24 293.4 360.64 293.4C361.04 293.413 361.307 293.413 361.44 293.4C361.573 293.387 361.66 293.353 361.7 293.3C361.753 293.26 361.78 293.18 361.78 293.06V285.12ZM353.82 285.12H362.3V286.24H355.12V294.6H353.82V285.12ZM346.64 282.36H351.96V283.56H346.64V282.36ZM346.74 276.9H351.88V278.1H346.74V276.9ZM346.64 285.1H351.96V286.28H346.64V285.1ZM345.76 279.58H352.48V280.82H345.76V279.58ZM347.34 287.84H352.04V293.66H347.34V292.44H350.74V289.08H347.34V287.84ZM346.6 287.84H347.88V294.58H346.6V287.84ZM370.18 284.1V291.18H368.74V285.5H365.84V284.1H370.18ZM370.18 290.56C370.66 291.307 371.327 291.86 372.18 292.22C373.033 292.567 374.047 292.767 375.22 292.82C375.78 292.833 376.453 292.847 377.24 292.86C378.04 292.86 378.88 292.86 379.76 292.86C380.64 292.847 381.487 292.827 382.3 292.8C383.127 292.773 383.847 292.74 384.46 292.7C384.407 292.807 384.347 292.947 384.28 293.12C384.213 293.293 384.147 293.473 384.08 293.66C384.027 293.847 383.987 294.02 383.96 294.18C383.4 294.193 382.74 294.207 381.98 294.22C381.233 294.247 380.44 294.26 379.6 294.26C378.773 294.273 377.973 294.273 377.2 294.26C376.44 294.247 375.78 294.233 375.22 294.22C373.927 294.167 372.813 293.953 371.88 293.58C370.947 293.207 370.167 292.62 369.54 291.82C369.033 292.26 368.513 292.693 367.98 293.12C367.447 293.56 366.893 294 366.32 294.44L365.58 292.96C366.073 292.64 366.613 292.273 367.2 291.86C367.787 291.433 368.347 291 368.88 290.56H370.18ZM366.16 277.58L367.22 276.66C367.647 276.953 368.08 277.293 368.52 277.68C368.973 278.053 369.387 278.433 369.76 278.82C370.133 279.193 370.427 279.553 370.64 279.9L369.5 280.94C369.3 280.593 369.013 280.227 368.64 279.84C368.28 279.44 367.887 279.047 367.46 278.66C367.033 278.26 366.6 277.9 366.16 277.58ZM374.18 279.56L375.12 278.7C375.76 278.927 376.433 279.193 377.14 279.5C377.86 279.793 378.547 280.093 379.2 280.4C379.867 280.707 380.42 280.993 380.86 281.26L379.86 282.22C379.447 281.953 378.913 281.66 378.26 281.34C377.62 281.02 376.94 280.707 376.22 280.4C375.5 280.08 374.82 279.8 374.18 279.56ZM372.26 281.22H382.6V282.38H373.68V291.58H372.26V281.22ZM381.9 281.22H383.34V290.08C383.34 290.453 383.293 290.74 383.2 290.94C383.107 291.127 382.927 291.28 382.66 291.4C382.393 291.507 382.04 291.573 381.6 291.6C381.173 291.613 380.62 291.62 379.94 291.62C379.913 291.433 379.86 291.227 379.78 291C379.7 290.76 379.613 290.56 379.52 290.4C380 290.413 380.427 290.42 380.8 290.42C381.187 290.42 381.44 290.42 381.56 290.42C381.693 290.407 381.78 290.373 381.82 290.32C381.873 290.267 381.9 290.187 381.9 290.08V281.22ZM372.28 277.02H382.26V278.22H372.28V277.02ZM373.04 284.14H382.46V285.26H373.04V284.14ZM373.04 287.08H382.46V288.26H373.04V287.08ZM377.06 281.7H378.42V291.5H377.06V281.7ZM381.76 277.02H382.1L382.4 276.94L383.34 277.68C382.887 278.093 382.373 278.507 381.8 278.92C381.227 279.32 380.627 279.693 380 280.04C379.373 280.387 378.753 280.687 378.14 280.94C378.047 280.807 377.92 280.653 377.76 280.48C377.6 280.307 377.46 280.167 377.34 280.06C377.9 279.833 378.46 279.567 379.02 279.26C379.58 278.953 380.1 278.633 380.58 278.3C381.06 277.953 381.453 277.62 381.76 277.3V277.02ZM396.58 291.02H402.5V292.44H396.58V291.02ZM395.94 277.94H403.16V293.8H401.64V279.36H397.4V294.02H395.94V277.94ZM390.04 279.58H391.54V283.58C391.54 284.433 391.48 285.347 391.36 286.32C391.253 287.28 391.027 288.253 390.68 289.24C390.347 290.213 389.86 291.16 389.22 292.08C388.593 292.987 387.76 293.807 386.72 294.54C386.667 294.447 386.573 294.327 386.44 294.18C386.307 294.033 386.173 293.887 386.04 293.74C385.907 293.593 385.787 293.487 385.68 293.42C386.653 292.727 387.427 291.973 388 291.16C388.587 290.347 389.02 289.507 389.3 288.64C389.593 287.76 389.787 286.887 389.88 286.02C389.987 285.153 390.04 284.333 390.04 283.56V279.58ZM387.98 278.88H394.72V280.28H387.98V278.88ZM385.9 284.28H395.3V285.72H385.9V284.28ZM391.06 286.9C391.22 287.047 391.44 287.273 391.72 287.58C392.013 287.873 392.333 288.213 392.68 288.6C393.027 288.973 393.373 289.353 393.72 289.74C394.067 290.113 394.373 290.453 394.64 290.76C394.907 291.067 395.107 291.293 395.24 291.44L394.22 292.72C394.047 292.467 393.827 292.173 393.56 291.84C393.293 291.493 393 291.127 392.68 290.74C392.36 290.34 392.04 289.953 391.72 289.58C391.4 289.193 391.1 288.847 390.82 288.54C390.553 288.22 390.327 287.96 390.14 287.76L391.06 286.9ZM388.14 276.18L389.6 276.48C389.413 277.373 389.18 278.247 388.9 279.1C388.633 279.94 388.327 280.733 387.98 281.48C387.647 282.213 387.28 282.867 386.88 283.44C386.8 283.347 386.687 283.247 386.54 283.14C386.393 283.033 386.233 282.927 386.06 282.82C385.9 282.713 385.767 282.627 385.66 282.56C386.247 281.787 386.747 280.84 387.16 279.72C387.587 278.587 387.913 277.407 388.14 276.18Z" fill="#3C373C"/>
<path d="M575.246 251L566.719 242.514C565.561 243.195 564.351 243.732 563.088 244.125C561.825 244.518 560.509 244.714 559.14 244.714C555.193 244.714 551.838 243.339 549.075 240.589C546.311 237.839 544.93 234.5 544.93 230.571C544.93 226.643 546.311 223.304 549.075 220.554C551.838 217.804 555.193 216.429 559.14 216.429C563.088 216.429 566.443 217.804 569.206 220.554C571.969 223.304 573.351 226.643 573.351 230.571C573.351 231.933 573.154 233.243 572.759 234.5C572.364 235.757 571.825 236.962 571.14 238.114L579.667 246.6L575.246 251ZM559.14 238.429C561.351 238.429 563.219 237.669 564.746 236.15C566.272 234.631 567.035 232.771 567.035 230.571C567.035 228.371 566.272 226.512 564.746 224.993C563.219 223.474 561.351 222.714 559.14 222.714C556.93 222.714 555.061 223.474 553.535 224.993C552.009 226.512 551.246 228.371 551.246 230.571C551.246 232.771 552.009 234.631 553.535 236.15C555.061 237.669 556.93 238.429 559.14 238.429ZM576.509 213.286H570.193V197.571H563.877V207H532.298V197.571H525.982V241.571H541.772V247.857H525.982C524.246 247.857 522.759 247.242 521.522 246.011C520.285 244.78 519.667 243.3 519.667 241.571V197.571C519.667 195.843 520.285 194.363 521.522 193.132C522.759 191.901 524.246 191.286 525.982 191.286H539.167C539.746 189.452 540.877 187.946 542.561 186.768C544.246 185.589 546.088 185 548.088 185C550.193 185 552.075 185.589 553.732 186.768C555.39 187.946 556.509 189.452 557.088 191.286H570.193C571.93 191.286 573.417 191.901 574.654 193.132C575.89 194.363 576.509 195.843 576.509 197.571V213.286ZM548.088 197.571C548.982 197.571 549.732 197.27 550.338 196.668C550.943 196.065 551.246 195.319 551.246 194.429C551.246 193.538 550.943 192.792 550.338 192.189C549.732 191.587 548.982 191.286 548.088 191.286C547.193 191.286 546.443 191.587 545.838 192.189C545.232 192.792 544.93 193.538 544.93 194.429C544.93 195.319 545.232 196.065 545.838 196.668C546.443 197.27 547.193 197.571 548.088 197.571Z" fill="#3C373C"/>
<path d="M495.687 277.64C495.98 277.8 496.327 278.007 496.727 278.26C497.127 278.513 497.54 278.78 497.967 279.06C498.393 279.34 498.787 279.607 499.147 279.86C499.52 280.1 499.813 280.3 500.027 280.46L499.087 281.82C498.847 281.647 498.547 281.433 498.187 281.18C497.827 280.927 497.44 280.667 497.027 280.4C496.613 280.12 496.207 279.86 495.807 279.62C495.42 279.367 495.08 279.153 494.787 278.98L495.687 277.64ZM492.687 291.94C493.42 291.807 494.173 291.633 494.947 291.42C495.72 291.193 496.487 290.933 497.247 290.64C498.007 290.333 498.72 289.987 499.387 289.6C500.493 288.96 501.52 288.253 502.467 287.48C503.413 286.707 504.267 285.88 505.027 285C505.787 284.12 506.433 283.213 506.967 282.28L507.927 283.92C507.06 285.267 505.96 286.56 504.627 287.8C503.307 289.04 501.847 290.133 500.247 291.08C499.567 291.467 498.827 291.827 498.027 292.16C497.24 292.48 496.46 292.76 495.687 293C494.927 293.24 494.233 293.427 493.607 293.56L492.687 291.94ZM492.667 282.14C492.96 282.287 493.313 282.487 493.727 282.74C494.14 282.98 494.56 283.233 494.987 283.5C495.413 283.753 495.813 284 496.187 284.24C496.56 284.48 496.853 284.68 497.067 284.84L496.147 286.24C495.893 286.053 495.58 285.84 495.207 285.6C494.847 285.347 494.46 285.093 494.047 284.84C493.633 284.573 493.227 284.32 492.827 284.08C492.427 283.84 492.08 283.647 491.787 283.5L492.667 282.14ZM514.287 278.1C514.553 278.14 514.84 278.167 515.147 278.18C515.453 278.193 515.767 278.2 516.087 278.2C516.287 278.2 516.647 278.2 517.167 278.2C517.7 278.2 518.3 278.2 518.967 278.2C519.647 278.2 520.32 278.2 520.987 278.2C521.667 278.2 522.273 278.2 522.807 278.2C523.34 278.2 523.72 278.2 523.947 278.2C524.267 278.2 524.587 278.193 524.907 278.18C525.227 278.167 525.513 278.14 525.767 278.1V279.76C525.527 279.733 525.24 279.72 524.907 279.72C524.587 279.707 524.26 279.7 523.927 279.7C523.7 279.7 523.32 279.7 522.787 279.7C522.267 279.7 521.673 279.7 521.007 279.7C520.34 279.7 519.667 279.7 518.987 279.7C518.32 279.7 517.72 279.7 517.187 279.7C516.667 279.7 516.3 279.7 516.087 279.7C515.78 279.7 515.473 279.707 515.167 279.72C514.86 279.733 514.567 279.747 514.287 279.76V278.1ZM527.227 283.38C527.187 283.46 527.133 283.56 527.067 283.68C527.013 283.787 526.98 283.88 526.967 283.96C526.7 284.947 526.333 285.94 525.867 286.94C525.4 287.927 524.793 288.827 524.047 289.64C522.993 290.787 521.853 291.68 520.627 292.32C519.413 292.96 518.167 293.46 516.887 293.82L515.647 292.4C517.06 292.107 518.373 291.647 519.587 291.02C520.8 290.393 521.833 289.633 522.687 288.74C523.3 288.1 523.8 287.387 524.187 286.6C524.587 285.8 524.88 285.04 525.067 284.32C524.92 284.32 524.64 284.32 524.227 284.32C523.827 284.32 523.333 284.32 522.747 284.32C522.16 284.32 521.527 284.32 520.847 284.32C520.18 284.32 519.5 284.32 518.807 284.32C518.127 284.32 517.487 284.32 516.887 284.32C516.3 284.32 515.787 284.32 515.347 284.32C514.92 284.32 514.62 284.32 514.447 284.32C514.207 284.32 513.913 284.327 513.567 284.34C513.22 284.34 512.86 284.353 512.487 284.38V282.7C512.86 282.74 513.213 282.773 513.547 282.8C513.88 282.813 514.18 282.82 514.447 282.82C514.593 282.82 514.873 282.82 515.287 282.82C515.7 282.82 516.2 282.82 516.787 282.82C517.373 282.82 518.007 282.82 518.687 282.82C519.367 282.82 520.047 282.82 520.727 282.82C521.407 282.82 522.04 282.82 522.627 282.82C523.213 282.82 523.713 282.82 524.127 282.82C524.553 282.82 524.84 282.82 524.987 282.82C525.213 282.82 525.427 282.807 525.627 282.78C525.827 282.753 525.98 282.713 526.087 282.66L527.227 283.38ZM544.771 277.42C544.945 277.647 545.131 277.927 545.331 278.26C545.531 278.58 545.725 278.907 545.911 279.24C546.111 279.573 546.278 279.88 546.411 280.16L545.331 280.64C545.131 280.227 544.878 279.76 544.571 279.24C544.265 278.707 543.978 278.247 543.711 277.86L544.771 277.42ZM546.971 276.62C547.158 276.86 547.351 277.147 547.551 277.48C547.765 277.813 547.971 278.147 548.171 278.48C548.371 278.8 548.531 279.087 548.651 279.34L547.571 279.82C547.358 279.38 547.098 278.907 546.791 278.4C546.498 277.88 546.205 277.433 545.911 277.06L546.971 276.62ZM533.831 286.98C534.045 286.46 534.251 285.893 534.451 285.28C534.665 284.667 534.858 284.033 535.031 283.38C535.218 282.713 535.378 282.06 535.511 281.42C535.645 280.767 535.738 280.147 535.791 279.56L537.571 279.94C537.545 280.087 537.505 280.247 537.451 280.42C537.398 280.58 537.351 280.747 537.311 280.92C537.271 281.093 537.238 281.253 537.211 281.4C537.145 281.707 537.051 282.107 536.931 282.6C536.811 283.093 536.671 283.633 536.511 284.22C536.351 284.807 536.178 285.4 535.991 286C535.805 286.587 535.605 287.133 535.391 287.64C535.151 288.253 534.871 288.887 534.551 289.54C534.245 290.18 533.911 290.807 533.551 291.42C533.191 292.033 532.825 292.607 532.451 293.14L530.751 292.42C531.378 291.58 531.958 290.673 532.491 289.7C533.038 288.713 533.485 287.807 533.831 286.98ZM543.671 286.22C543.471 285.7 543.251 285.153 543.011 284.58C542.771 284.007 542.518 283.433 542.251 282.86C541.985 282.273 541.725 281.727 541.471 281.22C541.231 280.7 540.998 280.26 540.771 279.9L542.391 279.36C542.591 279.707 542.811 280.133 543.051 280.64C543.305 281.147 543.565 281.687 543.831 282.26C544.098 282.833 544.358 283.413 544.611 284C544.865 284.587 545.098 285.147 545.311 285.68C545.511 286.173 545.725 286.727 545.951 287.34C546.178 287.94 546.398 288.553 546.611 289.18C546.838 289.793 547.045 290.393 547.231 290.98C547.418 291.553 547.578 292.067 547.711 292.52L545.931 293.1C545.771 292.42 545.565 291.687 545.311 290.9C545.071 290.1 544.811 289.3 544.531 288.5C544.251 287.687 543.965 286.927 543.671 286.22ZM565.471 279.62C565.405 279.7 565.318 279.833 565.211 280.02C565.118 280.193 565.038 280.353 564.971 280.5C564.718 281.153 564.385 281.88 563.971 282.68C563.558 283.467 563.098 284.247 562.591 285.02C562.085 285.793 561.551 286.493 560.991 287.12C560.258 287.947 559.451 288.753 558.571 289.54C557.691 290.313 556.765 291.04 555.791 291.72C554.818 292.387 553.805 292.96 552.751 293.44L551.471 292.1C552.551 291.673 553.585 291.147 554.571 290.52C555.571 289.88 556.505 289.187 557.371 288.44C558.251 287.68 559.031 286.92 559.711 286.16C560.165 285.64 560.611 285.06 561.051 284.42C561.505 283.767 561.905 283.107 562.251 282.44C562.611 281.76 562.871 281.147 563.031 280.6C562.925 280.6 562.671 280.6 562.271 280.6C561.871 280.6 561.398 280.6 560.851 280.6C560.305 280.6 559.731 280.6 559.131 280.6C558.531 280.6 557.958 280.6 557.411 280.6C556.865 280.6 556.391 280.6 555.991 280.6C555.605 280.6 555.351 280.6 555.231 280.6C555.005 280.6 554.745 280.607 554.451 280.62C554.171 280.633 553.911 280.647 553.671 280.66C553.445 280.673 553.291 280.687 553.211 280.7V278.88C553.305 278.893 553.471 278.913 553.711 278.94C553.965 278.953 554.231 278.967 554.511 278.98C554.791 278.993 555.031 279 555.231 279C555.378 279 555.645 279 556.031 279C556.418 279 556.878 279 557.411 279C557.958 279 558.525 279 559.111 279C559.698 279 560.258 279 560.791 279C561.338 279 561.805 279 562.191 279C562.578 279 562.831 279 562.951 279C563.285 279 563.578 278.987 563.831 278.96C564.098 278.933 564.305 278.893 564.451 278.84L565.471 279.62ZM561.251 286.06C561.798 286.513 562.358 287.013 562.931 287.56C563.518 288.107 564.091 288.673 564.651 289.26C565.211 289.833 565.731 290.387 566.211 290.92C566.691 291.44 567.105 291.913 567.451 292.34L566.051 293.54C565.585 292.9 565.025 292.213 564.371 291.48C563.718 290.733 563.025 289.993 562.291 289.26C561.571 288.513 560.845 287.827 560.111 287.2L561.251 286.06ZM570.511 280.48H576.911V281.9H570.511V280.48ZM573.331 276.2H574.731V294.58H573.331V276.2ZM573.311 281.38L574.231 281.68C574.085 282.48 573.891 283.307 573.651 284.16C573.425 285.013 573.158 285.853 572.851 286.68C572.545 287.507 572.225 288.28 571.891 289C571.558 289.707 571.211 290.307 570.851 290.8C570.771 290.613 570.651 290.393 570.491 290.14C570.331 289.887 570.191 289.673 570.071 289.5C570.405 289.047 570.731 288.507 571.051 287.88C571.385 287.253 571.691 286.573 571.971 285.84C572.265 285.107 572.525 284.36 572.751 283.6C572.978 282.84 573.165 282.1 573.311 281.38ZM574.631 283.3C574.751 283.433 574.931 283.667 575.171 284C575.411 284.32 575.665 284.673 575.931 285.06C576.211 285.447 576.465 285.813 576.691 286.16C576.918 286.493 577.078 286.727 577.171 286.86L576.331 288.04C576.225 287.8 576.065 287.493 575.851 287.12C575.651 286.733 575.431 286.333 575.191 285.92C574.951 285.507 574.718 285.127 574.491 284.78C574.278 284.42 574.111 284.14 573.991 283.94L574.631 283.3ZM578.871 280.92H586.511V282.2H578.871V280.92ZM582.651 277.56C582.278 278.12 581.805 278.693 581.231 279.28C580.658 279.853 580.025 280.407 579.331 280.94C578.651 281.46 577.938 281.913 577.191 282.3C577.125 282.113 577.011 281.9 576.851 281.66C576.705 281.42 576.571 281.22 576.451 281.06C577.198 280.713 577.918 280.28 578.611 279.76C579.305 279.227 579.931 278.66 580.491 278.06C581.065 277.447 581.531 276.84 581.891 276.24H583.271C583.751 276.893 584.305 277.527 584.931 278.14C585.571 278.74 586.245 279.28 586.951 279.76C587.658 280.24 588.358 280.633 589.051 280.94C588.905 281.113 588.758 281.327 588.611 281.58C588.465 281.82 588.345 282.04 588.251 282.24C587.571 281.893 586.878 281.467 586.171 280.96C585.465 280.453 584.805 279.907 584.191 279.32C583.591 278.733 583.078 278.147 582.651 277.56ZM578.911 285.26V288H586.411V285.26H578.911ZM577.571 284.06H587.791V289.22H577.571V284.06ZM581.911 281.7H583.291V287C583.291 287.707 583.211 288.427 583.051 289.16C582.905 289.88 582.611 290.58 582.171 291.26C581.731 291.927 581.098 292.553 580.271 293.14C579.445 293.727 578.365 294.247 577.031 294.7C576.991 294.58 576.918 294.447 576.811 294.3C576.718 294.167 576.611 294.027 576.491 293.88C576.385 293.747 576.285 293.64 576.191 293.56C577.458 293.16 578.471 292.707 579.231 292.2C580.005 291.693 580.578 291.153 580.951 290.58C581.338 290.007 581.591 289.413 581.711 288.8C581.845 288.187 581.911 287.573 581.911 286.96V281.7ZM583.491 288.46C583.891 289.447 584.345 290.253 584.851 290.88C585.358 291.507 585.951 292.013 586.631 292.4C587.311 292.787 588.078 293.127 588.931 293.42C588.745 293.58 588.565 293.773 588.391 294C588.231 294.24 588.111 294.473 588.031 294.7C587.111 294.34 586.285 293.92 585.551 293.44C584.831 292.96 584.198 292.347 583.651 291.6C583.105 290.84 582.625 289.88 582.211 288.72L583.491 288.46ZM598.691 289.08H600.171V294.64H598.691V289.08ZM598.671 276.18H600.171V281.8H598.671V276.18ZM597.951 282.16L599.331 282.82C598.758 283.367 598.138 283.913 597.471 284.46C596.805 285.007 596.178 285.473 595.591 285.86L594.491 285.26C594.878 284.98 595.285 284.66 595.711 284.3C596.138 283.94 596.551 283.573 596.951 283.2C597.351 282.813 597.685 282.467 597.951 282.16ZM602.251 283.44L603.631 284.18C602.871 284.793 602.045 285.427 601.151 286.08C600.258 286.72 599.351 287.34 598.431 287.94C597.525 288.527 596.665 289.053 595.851 289.52L594.791 288.78C595.391 288.433 596.025 288.047 596.691 287.62C597.371 287.18 598.051 286.72 598.731 286.24C599.411 285.76 600.051 285.28 600.651 284.8C601.251 284.32 601.785 283.867 602.251 283.44ZM592.971 285.2L593.971 284.34C594.465 284.58 594.985 284.86 595.531 285.18C596.091 285.5 596.618 285.82 597.111 286.14C597.618 286.46 598.031 286.76 598.351 287.04L597.291 288.02C596.998 287.74 596.605 287.433 596.111 287.1C595.631 286.753 595.111 286.413 594.551 286.08C594.005 285.747 593.478 285.453 592.971 285.2ZM602.051 286.76L603.051 285.98C603.638 286.313 604.251 286.7 604.891 287.14C605.545 287.567 606.158 288 606.731 288.44C607.305 288.867 607.771 289.253 608.131 289.6L607.091 290.52C606.731 290.16 606.271 289.76 605.711 289.32C605.151 288.867 604.551 288.42 603.911 287.98C603.271 287.527 602.651 287.12 602.051 286.76ZM602.091 291.04L603.251 290.26C603.825 290.54 604.425 290.867 605.051 291.24C605.691 291.6 606.298 291.973 606.871 292.36C607.445 292.747 607.918 293.107 608.291 293.44L607.051 294.34C606.718 294.007 606.271 293.64 605.711 293.24C605.165 292.853 604.571 292.467 603.931 292.08C603.291 291.693 602.678 291.347 602.091 291.04ZM590.791 288.46C591.698 288.46 592.738 288.46 593.911 288.46C595.098 288.447 596.365 288.433 597.711 288.42C599.058 288.393 600.451 288.373 601.891 288.36C603.331 288.333 604.765 288.307 606.191 288.28L606.111 289.46C604.258 289.513 602.398 289.567 600.531 289.62C598.678 289.673 596.918 289.72 595.251 289.76C593.598 289.8 592.138 289.833 590.871 289.86L590.791 288.46ZM595.271 290.24L596.691 290.78C596.238 291.233 595.718 291.687 595.131 292.14C594.558 292.58 593.958 292.987 593.331 293.36C592.718 293.747 592.125 294.087 591.551 294.38C591.471 294.287 591.358 294.173 591.211 294.04C591.065 293.907 590.918 293.773 590.771 293.64C590.625 293.52 590.485 293.42 590.351 293.34C591.245 292.967 592.138 292.507 593.031 291.96C593.925 291.413 594.671 290.84 595.271 290.24ZM590.991 277.96H607.911V279.28H590.991V277.96ZM590.951 281.2H608.071V284.98H606.611V282.52H592.371V284.98H590.951V281.2Z" fill="#3C373C"/>
</svg>
