<svg width="160" height="161" viewBox="0 0 160 161" fill="none" xmlns="http://www.w3.org/2000/svg">
<path d="M5.51724 0.5H0V6.01724H5.51724V0.5Z" fill="black"/>
<path d="M11.0345 0.5H5.51724V6.01724H11.0345V0.5Z" fill="black"/>
<path d="M16.5517 0.5H11.0345V6.01724H16.5517V0.5Z" fill="black"/>
<path d="M22.069 0.5H16.5517V6.01724H22.069V0.5Z" fill="black"/>
<path d="M27.5862 0.5H22.069V6.01724H27.5862V0.5Z" fill="black"/>
<path d="M33.1035 0.5H27.5862V6.01724H33.1035V0.5Z" fill="black"/>
<path d="M38.6207 0.5H33.1035V6.01724H38.6207V0.5Z" fill="black"/>
<path d="M49.6552 0.5H44.1379V6.01724H49.6552V0.5Z" fill="black"/>
<path d="M55.1724 0.5H49.6552V6.01724H55.1724V0.5Z" fill="black"/>
<path d="M60.6897 0.5H55.1724V6.01724H60.6897V0.5Z" fill="black"/>
<path d="M66.2069 0.5H60.6897V6.01724H66.2069V0.5Z" fill="black"/>
<path d="M71.7241 0.5H66.2069V6.01724H71.7241V0.5Z" fill="black"/>
<path d="M82.7586 0.5H77.2414V6.01724H82.7586V0.5Z" fill="black"/>
<path d="M88.2759 0.5H82.7586V6.01724H88.2759V0.5Z" fill="black"/>
<path d="M93.7931 0.5H88.2759V6.01724H93.7931V0.5Z" fill="black"/>
<path d="M99.3103 0.5H93.7931V6.01724H99.3103V0.5Z" fill="black"/>
<path d="M104.828 0.5H99.3103V6.01724H104.828V0.5Z" fill="black"/>
<path d="M110.345 0.5H104.828V6.01724H110.345V0.5Z" fill="black"/>
<path d="M115.862 0.5H110.345V6.01724H115.862V0.5Z" fill="black"/>
<path d="M126.897 0.5H121.379V6.01724H126.897V0.5Z" fill="black"/>
<path d="M132.414 0.5H126.897V6.01724H132.414V0.5Z" fill="black"/>
<path d="M137.931 0.5H132.414V6.01724H137.931V0.5Z" fill="black"/>
<path d="M143.448 0.5H137.931V6.01724H143.448V0.5Z" fill="black"/>
<path d="M148.966 0.5H143.448V6.01724H148.966V0.5Z" fill="black"/>
<path d="M154.483 0.5H148.966V6.01724H154.483V0.5Z" fill="black"/>
<path d="M160 0.5H154.483V6.01724H160V0.5Z" fill="black"/>
<path d="M5.51724 6.01724H0V11.5345H5.51724V6.01724Z" fill="black"/>
<path d="M38.6207 6.01724H33.1035V11.5345H38.6207V6.01724Z" fill="black"/>
<path d="M77.2414 6.01724H71.7241V11.5345H77.2414V6.01724Z" fill="black"/>
<path d="M88.2759 6.01724H82.7586V11.5345H88.2759V6.01724Z" fill="black"/>
<path d="M93.7931 6.01724H88.2759V11.5345H93.7931V6.01724Z" fill="black"/>
<path d="M99.3103 6.01724H93.7931V11.5345H99.3103V6.01724Z" fill="black"/>
<path d="M104.828 6.01724H99.3103V11.5345H104.828V6.01724Z" fill="black"/>
<path d="M110.345 6.01724H104.828V11.5345H110.345V6.01724Z" fill="black"/>
<path d="M115.862 6.01724H110.345V11.5345H115.862V6.01724Z" fill="black"/>
<path d="M126.897 6.01724H121.379V11.5345H126.897V6.01724Z" fill="black"/>
<path d="M160 6.01724H154.483V11.5345H160V6.01724Z" fill="black"/>
<path d="M5.51724 11.5345H0V17.0517H5.51724V11.5345Z" fill="black"/>
<path d="M16.5517 11.5345H11.0345V17.0517H16.5517V11.5345Z" fill="black"/>
<path d="M22.069 11.5345H16.5517V17.0517H22.069V11.5345Z" fill="black"/>
<path d="M27.5862 11.5345H22.069V17.0517H27.5862V11.5345Z" fill="black"/>
<path d="M38.6207 11.5345H33.1035V17.0517H38.6207V11.5345Z" fill="black"/>
<path d="M55.1724 11.5345H49.6552V17.0517H55.1724V11.5345Z" fill="black"/>
<path d="M66.2069 11.5345H60.6897V17.0517H66.2069V11.5345Z" fill="black"/>
<path d="M71.7241 11.5345H66.2069V17.0517H71.7241V11.5345Z" fill="black"/>
<path d="M93.7931 11.5345H88.2759V17.0517H93.7931V11.5345Z" fill="black"/>
<path d="M110.345 11.5345H104.828V17.0517H110.345V11.5345Z" fill="black"/>
<path d="M115.862 11.5345H110.345V17.0517H115.862V11.5345Z" fill="black"/>
<path d="M126.897 11.5345H121.379V17.0517H126.897V11.5345Z" fill="black"/>
<path d="M137.931 11.5345H132.414V17.0517H137.931V11.5345Z" fill="black"/>
<path d="M143.448 11.5345H137.931V17.0517H143.448V11.5345Z" fill="black"/>
<path d="M148.966 11.5345H143.448V17.0517H148.966V11.5345Z" fill="black"/>
<path d="M160 11.5345H154.483V17.0517H160V11.5345Z" fill="black"/>
<path d="M5.51724 17.0517H0V22.569H5.51724V17.0517Z" fill="black"/>
<path d="M16.5517 17.0517H11.0345V22.569H16.5517V17.0517Z" fill="black"/>
<path d="M22.069 17.0517H16.5517V22.569H22.069V17.0517Z" fill="black"/>
<path d="M27.5862 17.0517H22.069V22.569H27.5862V17.0517Z" fill="black"/>
<path d="M38.6207 17.0517H33.1035V22.569H38.6207V17.0517Z" fill="black"/>
<path d="M49.6552 17.0517H44.1379V22.569H49.6552V17.0517Z" fill="black"/>
<path d="M60.6897 17.0517H55.1724V22.569H60.6897V17.0517Z" fill="black"/>
<path d="M82.7586 17.0517H77.2414V22.569H82.7586V17.0517Z" fill="black"/>
<path d="M93.7931 17.0517H88.2759V22.569H93.7931V17.0517Z" fill="black"/>
<path d="M110.345 17.0517H104.828V22.569H110.345V17.0517Z" fill="black"/>
<path d="M115.862 17.0517H110.345V22.569H115.862V17.0517Z" fill="black"/>
<path d="M126.897 17.0517H121.379V22.569H126.897V17.0517Z" fill="black"/>
<path d="M137.931 17.0517H132.414V22.569H137.931V17.0517Z" fill="black"/>
<path d="M143.448 17.0517H137.931V22.569H143.448V17.0517Z" fill="black"/>
<path d="M148.966 17.0517H143.448V22.569H148.966V17.0517Z" fill="black"/>
<path d="M160 17.0517H154.483V22.569H160V17.0517Z" fill="black"/>
<path d="M5.51724 22.569H0V28.0862H5.51724V22.569Z" fill="black"/>
<path d="M16.5517 22.569H11.0345V28.0862H16.5517V22.569Z" fill="black"/>
<path d="M22.069 22.569H16.5517V28.0862H22.069V22.569Z" fill="black"/>
<path d="M27.5862 22.569H22.069V28.0862H27.5862V22.569Z" fill="black"/>
<path d="M38.6207 22.569H33.1035V28.0862H38.6207V22.569Z" fill="black"/>
<path d="M49.6552 22.569H44.1379V28.0862H49.6552V22.569Z" fill="black"/>
<path d="M60.6897 22.569H55.1724V28.0862H60.6897V22.569Z" fill="black"/>
<path d="M71.7241 22.569H66.2069V28.0862H71.7241V22.569Z" fill="black"/>
<path d="M82.7586 22.569H77.2414V28.0862H82.7586V22.569Z" fill="black"/>
<path d="M99.3103 22.569H93.7931V28.0862H99.3103V22.569Z" fill="black"/>
<path d="M115.862 22.569H110.345V28.0862H115.862V22.569Z" fill="black"/>
<path d="M126.897 22.569H121.379V28.0862H126.897V22.569Z" fill="black"/>
<path d="M137.931 22.569H132.414V28.0862H137.931V22.569Z" fill="black"/>
<path d="M143.448 22.569H137.931V28.0862H143.448V22.569Z" fill="black"/>
<path d="M148.966 22.569H143.448V28.0862H148.966V22.569Z" fill="black"/>
<path d="M160 22.569H154.483V28.0862H160V22.569Z" fill="black"/>
<path d="M5.51724 28.0862H0V33.6035H5.51724V28.0862Z" fill="black"/>
<path d="M38.6207 28.0862H33.1035V33.6035H38.6207V28.0862Z" fill="black"/>
<path d="M49.6552 28.0862H44.1379V33.6035H49.6552V28.0862Z" fill="black"/>
<path d="M71.7241 28.0862H66.2069V33.6035H71.7241V28.0862Z" fill="black"/>
<path d="M88.2759 28.0862H82.7586V33.6035H88.2759V28.0862Z" fill="black"/>
<path d="M93.7931 28.0862H88.2759V33.6035H93.7931V28.0862Z" fill="black"/>
<path d="M110.345 28.0862H104.828V33.6035H110.345V28.0862Z" fill="black"/>
<path d="M126.897 28.0862H121.379V33.6035H126.897V28.0862Z" fill="black"/>
<path d="M160 28.0862H154.483V33.6035H160V28.0862Z" fill="black"/>
<path d="M5.51724 33.6035H0V39.1207H5.51724V33.6035Z" fill="black"/>
<path d="M11.0345 33.6035H5.51724V39.1207H11.0345V33.6035Z" fill="black"/>
<path d="M16.5517 33.6035H11.0345V39.1207H16.5517V33.6035Z" fill="black"/>
<path d="M22.069 33.6035H16.5517V39.1207H22.069V33.6035Z" fill="black"/>
<path d="M27.5862 33.6035H22.069V39.1207H27.5862V33.6035Z" fill="black"/>
<path d="M33.1035 33.6035H27.5862V39.1207H33.1035V33.6035Z" fill="black"/>
<path d="M38.6207 33.6035H33.1035V39.1207H38.6207V33.6035Z" fill="black"/>
<path d="M49.6552 33.6035H44.1379V39.1207H49.6552V33.6035Z" fill="black"/>
<path d="M60.6897 33.6035H55.1724V39.1207H60.6897V33.6035Z" fill="black"/>
<path d="M71.7241 33.6035H66.2069V39.1207H71.7241V33.6035Z" fill="black"/>
<path d="M82.7586 33.6035H77.2414V39.1207H82.7586V33.6035Z" fill="black"/>
<path d="M93.7931 33.6035H88.2759V39.1207H93.7931V33.6035Z" fill="black"/>
<path d="M104.828 33.6035H99.3103V39.1207H104.828V33.6035Z" fill="black"/>
<path d="M115.862 33.6035H110.345V39.1207H115.862V33.6035Z" fill="black"/>
<path d="M126.897 33.6035H121.379V39.1207H126.897V33.6035Z" fill="black"/>
<path d="M132.414 33.6035H126.897V39.1207H132.414V33.6035Z" fill="black"/>
<path d="M137.931 33.6035H132.414V39.1207H137.931V33.6035Z" fill="black"/>
<path d="M143.448 33.6035H137.931V39.1207H143.448V33.6035Z" fill="black"/>
<path d="M148.966 33.6035H143.448V39.1207H148.966V33.6035Z" fill="black"/>
<path d="M154.483 33.6035H148.966V39.1207H154.483V33.6035Z" fill="black"/>
<path d="M160 33.6035H154.483V39.1207H160V33.6035Z" fill="black"/>
<path d="M49.6552 39.1207H44.1379V44.6379H49.6552V39.1207Z" fill="black"/>
<path d="M55.1724 39.1207H49.6552V44.6379H55.1724V39.1207Z" fill="black"/>
<path d="M60.6897 39.1207H55.1724V44.6379H60.6897V39.1207Z" fill="black"/>
<path d="M77.2414 39.1207H71.7241V44.6379H77.2414V39.1207Z" fill="black"/>
<path d="M82.7586 39.1207H77.2414V44.6379H82.7586V39.1207Z" fill="black"/>
<path d="M88.2759 39.1207H82.7586V44.6379H88.2759V39.1207Z" fill="black"/>
<path d="M104.828 39.1207H99.3103V44.6379H104.828V39.1207Z" fill="black"/>
<path d="M110.345 39.1207H104.828V44.6379H110.345V39.1207Z" fill="black"/>
<path d="M5.51724 44.6379H0V50.1552H5.51724V44.6379Z" fill="black"/>
<path d="M11.0345 44.6379H5.51724V50.1552H11.0345V44.6379Z" fill="black"/>
<path d="M16.5517 44.6379H11.0345V50.1552H16.5517V44.6379Z" fill="black"/>
<path d="M27.5862 44.6379H22.069V50.1552H27.5862V44.6379Z" fill="black"/>
<path d="M38.6207 44.6379H33.1035V50.1552H38.6207V44.6379Z" fill="black"/>
<path d="M49.6552 44.6379H44.1379V50.1552H49.6552V44.6379Z" fill="black"/>
<path d="M55.1724 44.6379H49.6552V50.1552H55.1724V44.6379Z" fill="black"/>
<path d="M66.2069 44.6379H60.6897V50.1552H66.2069V44.6379Z" fill="black"/>
<path d="M99.3103 44.6379H93.7931V50.1552H99.3103V44.6379Z" fill="black"/>
<path d="M110.345 44.6379H104.828V50.1552H110.345V44.6379Z" fill="black"/>
<path d="M121.379 44.6379H115.862V50.1552H121.379V44.6379Z" fill="black"/>
<path d="M126.897 44.6379H121.379V50.1552H126.897V44.6379Z" fill="black"/>
<path d="M132.414 44.6379H126.897V50.1552H132.414V44.6379Z" fill="black"/>
<path d="M137.931 44.6379H132.414V50.1552H137.931V44.6379Z" fill="black"/>
<path d="M143.448 44.6379H137.931V50.1552H143.448V44.6379Z" fill="black"/>
<path d="M160 44.6379H154.483V50.1552H160V44.6379Z" fill="black"/>
<path d="M44.1379 50.1552H38.6207V55.6724H44.1379V50.1552Z" fill="black"/>
<path d="M49.6552 50.1552H44.1379V55.6724H49.6552V50.1552Z" fill="black"/>
<path d="M55.1724 50.1552H49.6552V55.6724H55.1724V50.1552Z" fill="black"/>
<path d="M71.7241 50.1552H66.2069V55.6724H71.7241V50.1552Z" fill="black"/>
<path d="M82.7586 50.1552H77.2414V55.6724H82.7586V50.1552Z" fill="black"/>
<path d="M88.2759 50.1552H82.7586V55.6724H88.2759V50.1552Z" fill="black"/>
<path d="M93.7931 50.1552H88.2759V55.6724H93.7931V50.1552Z" fill="black"/>
<path d="M110.345 50.1552H104.828V55.6724H110.345V50.1552Z" fill="black"/>
<path d="M5.51724 55.6724H0V61.1897H5.51724V55.6724Z" fill="black"/>
<path d="M11.0345 55.6724H5.51724V61.1897H11.0345V55.6724Z" fill="black"/>
<path d="M16.5517 55.6724H11.0345V61.1897H16.5517V55.6724Z" fill="black"/>
<path d="M33.1035 55.6724H27.5862V61.1897H33.1035V55.6724Z" fill="black"/>
<path d="M38.6207 55.6724H33.1035V61.1897H38.6207V55.6724Z" fill="black"/>
<path d="M44.1379 55.6724H38.6207V61.1897H44.1379V55.6724Z" fill="black"/>
<path d="M49.6552 55.6724H44.1379V61.1897H49.6552V55.6724Z" fill="black"/>
<path d="M55.1724 55.6724H49.6552V61.1897H55.1724V55.6724Z" fill="black"/>
<path d="M60.6897 55.6724H55.1724V61.1897H60.6897V55.6724Z" fill="black"/>
<path d="M77.2414 55.6724H71.7241V61.1897H77.2414V55.6724Z" fill="black"/>
<path d="M99.3103 55.6724H93.7931V61.1897H99.3103V55.6724Z" fill="black"/>
<path d="M104.828 55.6724H99.3103V61.1897H104.828V55.6724Z" fill="black"/>
<path d="M110.345 55.6724H104.828V61.1897H110.345V55.6724Z" fill="black"/>
<path d="M121.379 55.6724H115.862V61.1897H121.379V55.6724Z" fill="black"/>
<path d="M126.897 55.6724H121.379V61.1897H126.897V55.6724Z" fill="black"/>
<path d="M132.414 55.6724H126.897V61.1897H132.414V55.6724Z" fill="black"/>
<path d="M148.966 55.6724H143.448V61.1897H148.966V55.6724Z" fill="black"/>
<path d="M154.483 55.6724H148.966V61.1897H154.483V55.6724Z" fill="black"/>
<path d="M5.51724 61.1897H0V66.7069H5.51724V61.1897Z" fill="black"/>
<path d="M11.0345 61.1897H5.51724V66.7069H11.0345V61.1897Z" fill="black"/>
<path d="M16.5517 61.1897H11.0345V66.7069H16.5517V61.1897Z" fill="black"/>
<path d="M22.069 61.1897H16.5517V66.7069H22.069V61.1897Z" fill="black"/>
<path d="M60.6897 61.1897H55.1724V66.7069H60.6897V61.1897Z" fill="black"/>
<path d="M77.2414 61.1897H71.7241V66.7069H77.2414V61.1897Z" fill="black"/>
<path d="M88.2759 61.1897H82.7586V66.7069H88.2759V61.1897Z" fill="black"/>
<path d="M99.3103 61.1897H93.7931V66.7069H99.3103V61.1897Z" fill="black"/>
<path d="M110.345 61.1897H104.828V66.7069H110.345V61.1897Z" fill="black"/>
<path d="M126.897 61.1897H121.379V66.7069H126.897V61.1897Z" fill="black"/>
<path d="M137.931 61.1897H132.414V66.7069H137.931V61.1897Z" fill="black"/>
<path d="M143.448 61.1897H137.931V66.7069H143.448V61.1897Z" fill="black"/>
<path d="M154.483 61.1897H148.966V66.7069H154.483V61.1897Z" fill="black"/>
<path d="M160 61.1897H154.483V66.7069H160V61.1897Z" fill="black"/>
<path d="M5.51724 66.7069H0V72.2241H5.51724V66.7069Z" fill="black"/>
<path d="M11.0345 66.7069H5.51724V72.2241H11.0345V66.7069Z" fill="black"/>
<path d="M22.069 66.7069H16.5517V72.2241H22.069V66.7069Z" fill="black"/>
<path d="M27.5862 66.7069H22.069V72.2241H27.5862V66.7069Z" fill="black"/>
<path d="M38.6207 66.7069H33.1035V72.2241H38.6207V66.7069Z" fill="black"/>
<path d="M55.1724 66.7069H49.6552V72.2241H55.1724V66.7069Z" fill="black"/>
<path d="M60.6897 66.7069H55.1724V72.2241H60.6897V66.7069Z" fill="black"/>
<path d="M66.2069 66.7069H60.6897V72.2241H66.2069V66.7069Z" fill="black"/>
<path d="M77.2414 66.7069H71.7241V72.2241H77.2414V66.7069Z" fill="black"/>
<path d="M82.7586 66.7069H77.2414V72.2241H82.7586V66.7069Z" fill="black"/>
<path d="M88.2759 66.7069H82.7586V72.2241H88.2759V66.7069Z" fill="black"/>
<path d="M104.828 66.7069H99.3103V72.2241H104.828V66.7069Z" fill="black"/>
<path d="M115.862 66.7069H110.345V72.2241H115.862V66.7069Z" fill="black"/>
<path d="M132.414 66.7069H126.897V72.2241H132.414V66.7069Z" fill="black"/>
<path d="M143.448 66.7069H137.931V72.2241H143.448V66.7069Z" fill="black"/>
<path d="M154.483 66.7069H148.966V72.2241H154.483V66.7069Z" fill="black"/>
<path d="M160 66.7069H154.483V72.2241H160V66.7069Z" fill="black"/>
<path d="M5.51724 72.2241H0V77.7414H5.51724V72.2241Z" fill="black"/>
<path d="M11.0345 72.2241H5.51724V77.7414H11.0345V72.2241Z" fill="black"/>
<path d="M16.5517 72.2241H11.0345V77.7414H16.5517V72.2241Z" fill="black"/>
<path d="M27.5862 72.2241H22.069V77.7414H27.5862V72.2241Z" fill="black"/>
<path d="M33.1035 72.2241H27.5862V77.7414H33.1035V72.2241Z" fill="black"/>
<path d="M49.6552 72.2241H44.1379V77.7414H49.6552V72.2241Z" fill="black"/>
<path d="M71.7241 72.2241H66.2069V77.7414H71.7241V72.2241Z" fill="black"/>
<path d="M88.2759 72.2241H82.7586V77.7414H88.2759V72.2241Z" fill="black"/>
<path d="M104.828 72.2241H99.3103V77.7414H104.828V72.2241Z" fill="black"/>
<path d="M110.345 72.2241H104.828V77.7414H110.345V72.2241Z" fill="black"/>
<path d="M115.862 72.2241H110.345V77.7414H115.862V72.2241Z" fill="black"/>
<path d="M121.379 72.2241H115.862V77.7414H121.379V72.2241Z" fill="black"/>
<path d="M126.897 72.2241H121.379V77.7414H126.897V72.2241Z" fill="black"/>
<path d="M132.414 72.2241H126.897V77.7414H132.414V72.2241Z" fill="black"/>
<path d="M137.931 72.2241H132.414V77.7414H137.931V72.2241Z" fill="black"/>
<path d="M143.448 72.2241H137.931V77.7414H143.448V72.2241Z" fill="black"/>
<path d="M148.966 72.2241H143.448V77.7414H148.966V72.2241Z" fill="black"/>
<path d="M154.483 72.2241H148.966V77.7414H154.483V72.2241Z" fill="black"/>
<path d="M160 72.2241H154.483V77.7414H160V72.2241Z" fill="black"/>
<path d="M5.51724 77.7414H0V83.2586H5.51724V77.7414Z" fill="black"/>
<path d="M11.0345 77.7414H5.51724V83.2586H11.0345V77.7414Z" fill="black"/>
<path d="M16.5517 77.7414H11.0345V83.2586H16.5517V77.7414Z" fill="black"/>
<path d="M22.069 77.7414H16.5517V83.2586H22.069V77.7414Z" fill="black"/>
<path d="M33.1035 77.7414H27.5862V83.2586H33.1035V77.7414Z" fill="black"/>
<path d="M38.6207 77.7414H33.1035V83.2586H38.6207V77.7414Z" fill="black"/>
<path d="M44.1379 77.7414H38.6207V83.2586H44.1379V77.7414Z" fill="black"/>
<path d="M49.6552 77.7414H44.1379V83.2586H49.6552V77.7414Z" fill="black"/>
<path d="M55.1724 77.7414H49.6552V83.2586H55.1724V77.7414Z" fill="black"/>
<path d="M60.6897 77.7414H55.1724V83.2586H60.6897V77.7414Z" fill="black"/>
<path d="M66.2069 77.7414H60.6897V83.2586H66.2069V77.7414Z" fill="black"/>
<path d="M71.7241 77.7414H66.2069V83.2586H71.7241V77.7414Z" fill="black"/>
<path d="M82.7586 77.7414H77.2414V83.2586H82.7586V77.7414Z" fill="black"/>
<path d="M88.2759 77.7414H82.7586V83.2586H88.2759V77.7414Z" fill="black"/>
<path d="M104.828 77.7414H99.3103V83.2586H104.828V77.7414Z" fill="black"/>
<path d="M143.448 77.7414H137.931V83.2586H143.448V77.7414Z" fill="black"/>
<path d="M148.966 77.7414H143.448V83.2586H148.966V77.7414Z" fill="black"/>
<path d="M5.51724 83.2586H0V88.7759H5.51724V83.2586Z" fill="black"/>
<path d="M11.0345 83.2586H5.51724V88.7759H11.0345V83.2586Z" fill="black"/>
<path d="M22.069 83.2586H16.5517V88.7759H22.069V83.2586Z" fill="black"/>
<path d="M27.5862 83.2586H22.069V88.7759H27.5862V83.2586Z" fill="black"/>
<path d="M49.6552 83.2586H44.1379V88.7759H49.6552V83.2586Z" fill="black"/>
<path d="M66.2069 83.2586H60.6897V88.7759H66.2069V83.2586Z" fill="black"/>
<path d="M82.7586 83.2586H77.2414V88.7759H82.7586V83.2586Z" fill="black"/>
<path d="M93.7931 83.2586H88.2759V88.7759H93.7931V83.2586Z" fill="black"/>
<path d="M110.345 83.2586H104.828V88.7759H110.345V83.2586Z" fill="black"/>
<path d="M126.897 83.2586H121.379V88.7759H126.897V83.2586Z" fill="black"/>
<path d="M137.931 83.2586H132.414V88.7759H137.931V83.2586Z" fill="black"/>
<path d="M154.483 83.2586H148.966V88.7759H154.483V83.2586Z" fill="black"/>
<path d="M38.6207 88.7759H33.1035V94.2931H38.6207V88.7759Z" fill="black"/>
<path d="M49.6552 88.7759H44.1379V94.2931H49.6552V88.7759Z" fill="black"/>
<path d="M88.2759 88.7759H82.7586V94.2931H88.2759V88.7759Z" fill="black"/>
<path d="M104.828 88.7759H99.3103V94.2931H104.828V88.7759Z" fill="black"/>
<path d="M110.345 88.7759H104.828V94.2931H110.345V88.7759Z" fill="black"/>
<path d="M121.379 88.7759H115.862V94.2931H121.379V88.7759Z" fill="black"/>
<path d="M126.897 88.7759H121.379V94.2931H126.897V88.7759Z" fill="black"/>
<path d="M132.414 88.7759H126.897V94.2931H132.414V88.7759Z" fill="black"/>
<path d="M137.931 88.7759H132.414V94.2931H137.931V88.7759Z" fill="black"/>
<path d="M143.448 88.7759H137.931V94.2931H143.448V88.7759Z" fill="black"/>
<path d="M148.966 88.7759H143.448V94.2931H148.966V88.7759Z" fill="black"/>
<path d="M160 88.7759H154.483V94.2931H160V88.7759Z" fill="black"/>
<path d="M5.51724 94.2931H0V99.8103H5.51724V94.2931Z" fill="black"/>
<path d="M22.069 94.2931H16.5517V99.8103H22.069V94.2931Z" fill="black"/>
<path d="M27.5862 94.2931H22.069V99.8103H27.5862V94.2931Z" fill="black"/>
<path d="M49.6552 94.2931H44.1379V99.8103H49.6552V94.2931Z" fill="black"/>
<path d="M60.6897 94.2931H55.1724V99.8103H60.6897V94.2931Z" fill="black"/>
<path d="M66.2069 94.2931H60.6897V99.8103H66.2069V94.2931Z" fill="black"/>
<path d="M71.7241 94.2931H66.2069V99.8103H71.7241V94.2931Z" fill="black"/>
<path d="M77.2414 94.2931H71.7241V99.8103H77.2414V94.2931Z" fill="black"/>
<path d="M82.7586 94.2931H77.2414V99.8103H82.7586V94.2931Z" fill="black"/>
<path d="M88.2759 94.2931H82.7586V99.8103H88.2759V94.2931Z" fill="black"/>
<path d="M93.7931 94.2931H88.2759V99.8103H93.7931V94.2931Z" fill="black"/>
<path d="M99.3103 94.2931H93.7931V99.8103H99.3103V94.2931Z" fill="black"/>
<path d="M104.828 94.2931H99.3103V99.8103H104.828V94.2931Z" fill="black"/>
<path d="M121.379 94.2931H115.862V99.8103H121.379V94.2931Z" fill="black"/>
<path d="M137.931 94.2931H132.414V99.8103H137.931V94.2931Z" fill="black"/>
<path d="M160 94.2931H154.483V99.8103H160V94.2931Z" fill="black"/>
<path d="M11.0345 99.8103H5.51724V105.328H11.0345V99.8103Z" fill="black"/>
<path d="M16.5517 99.8103H11.0345V105.328H16.5517V99.8103Z" fill="black"/>
<path d="M22.069 99.8103H16.5517V105.328H22.069V99.8103Z" fill="black"/>
<path d="M33.1035 99.8103H27.5862V105.328H33.1035V99.8103Z" fill="black"/>
<path d="M38.6207 99.8103H33.1035V105.328H38.6207V99.8103Z" fill="black"/>
<path d="M49.6552 99.8103H44.1379V105.328H49.6552V99.8103Z" fill="black"/>
<path d="M66.2069 99.8103H60.6897V105.328H66.2069V99.8103Z" fill="black"/>
<path d="M71.7241 99.8103H66.2069V105.328H71.7241V99.8103Z" fill="black"/>
<path d="M77.2414 99.8103H71.7241V105.328H77.2414V99.8103Z" fill="black"/>
<path d="M88.2759 99.8103H82.7586V105.328H88.2759V99.8103Z" fill="black"/>
<path d="M99.3103 99.8103H93.7931V105.328H99.3103V99.8103Z" fill="black"/>
<path d="M104.828 99.8103H99.3103V105.328H104.828V99.8103Z" fill="black"/>
<path d="M115.862 99.8103H110.345V105.328H115.862V99.8103Z" fill="black"/>
<path d="M132.414 99.8103H126.897V105.328H132.414V99.8103Z" fill="black"/>
<path d="M143.448 99.8103H137.931V105.328H143.448V99.8103Z" fill="black"/>
<path d="M148.966 99.8103H143.448V105.328H148.966V99.8103Z" fill="black"/>
<path d="M160 99.8103H154.483V105.328H160V99.8103Z" fill="black"/>
<path d="M11.0345 105.328H5.51724V110.845H11.0345V105.328Z" fill="black"/>
<path d="M27.5862 105.328H22.069V110.845H27.5862V105.328Z" fill="black"/>
<path d="M49.6552 105.328H44.1379V110.845H49.6552V105.328Z" fill="black"/>
<path d="M55.1724 105.328H49.6552V110.845H55.1724V105.328Z" fill="black"/>
<path d="M71.7241 105.328H66.2069V110.845H71.7241V105.328Z" fill="black"/>
<path d="M82.7586 105.328H77.2414V110.845H82.7586V105.328Z" fill="black"/>
<path d="M88.2759 105.328H82.7586V110.845H88.2759V105.328Z" fill="black"/>
<path d="M93.7931 105.328H88.2759V110.845H93.7931V105.328Z" fill="black"/>
<path d="M99.3103 105.328H93.7931V110.845H99.3103V105.328Z" fill="black"/>
<path d="M104.828 105.328H99.3103V110.845H104.828V105.328Z" fill="black"/>
<path d="M126.897 105.328H121.379V110.845H126.897V105.328Z" fill="black"/>
<path d="M132.414 105.328H126.897V110.845H132.414V105.328Z" fill="black"/>
<path d="M137.931 105.328H132.414V110.845H137.931V105.328Z" fill="black"/>
<path d="M143.448 105.328H137.931V110.845H143.448V105.328Z" fill="black"/>
<path d="M154.483 105.328H148.966V110.845H154.483V105.328Z" fill="black"/>
<path d="M160 105.328H154.483V110.845H160V105.328Z" fill="black"/>
<path d="M11.0345 110.845H5.51724V116.362H11.0345V110.845Z" fill="black"/>
<path d="M16.5517 110.845H11.0345V116.362H16.5517V110.845Z" fill="black"/>
<path d="M27.5862 110.845H22.069V116.362H27.5862V110.845Z" fill="black"/>
<path d="M33.1035 110.845H27.5862V116.362H33.1035V110.845Z" fill="black"/>
<path d="M38.6207 110.845H33.1035V116.362H38.6207V110.845Z" fill="black"/>
<path d="M44.1379 110.845H38.6207V116.362H44.1379V110.845Z" fill="black"/>
<path d="M66.2069 110.845H60.6897V116.362H66.2069V110.845Z" fill="black"/>
<path d="M77.2414 110.845H71.7241V116.362H77.2414V110.845Z" fill="black"/>
<path d="M82.7586 110.845H77.2414V116.362H82.7586V110.845Z" fill="black"/>
<path d="M93.7931 110.845H88.2759V116.362H93.7931V110.845Z" fill="black"/>
<path d="M115.862 110.845H110.345V116.362H115.862V110.845Z" fill="black"/>
<path d="M121.379 110.845H115.862V116.362H121.379V110.845Z" fill="black"/>
<path d="M126.897 110.845H121.379V116.362H126.897V110.845Z" fill="black"/>
<path d="M132.414 110.845H126.897V116.362H132.414V110.845Z" fill="black"/>
<path d="M137.931 110.845H132.414V116.362H137.931V110.845Z" fill="black"/>
<path d="M143.448 110.845H137.931V116.362H143.448V110.845Z" fill="black"/>
<path d="M160 110.845H154.483V116.362H160V110.845Z" fill="black"/>
<path d="M49.6552 116.362H44.1379V121.879H49.6552V116.362Z" fill="black"/>
<path d="M60.6897 116.362H55.1724V121.879H60.6897V116.362Z" fill="black"/>
<path d="M66.2069 116.362H60.6897V121.879H66.2069V116.362Z" fill="black"/>
<path d="M104.828 116.362H99.3103V121.879H104.828V116.362Z" fill="black"/>
<path d="M110.345 116.362H104.828V121.879H110.345V116.362Z" fill="black"/>
<path d="M115.862 116.362H110.345V121.879H115.862V116.362Z" fill="black"/>
<path d="M137.931 116.362H132.414V121.879H137.931V116.362Z" fill="black"/>
<path d="M148.966 116.362H143.448V121.879H148.966V116.362Z" fill="black"/>
<path d="M154.483 116.362H148.966V121.879H154.483V116.362Z" fill="black"/>
<path d="M160 116.362H154.483V121.879H160V116.362Z" fill="black"/>
<path d="M5.51724 121.879H0V127.397H5.51724V121.879Z" fill="black"/>
<path d="M11.0345 121.879H5.51724V127.397H11.0345V121.879Z" fill="black"/>
<path d="M16.5517 121.879H11.0345V127.397H16.5517V121.879Z" fill="black"/>
<path d="M22.069 121.879H16.5517V127.397H22.069V121.879Z" fill="black"/>
<path d="M27.5862 121.879H22.069V127.397H27.5862V121.879Z" fill="black"/>
<path d="M33.1035 121.879H27.5862V127.397H33.1035V121.879Z" fill="black"/>
<path d="M38.6207 121.879H33.1035V127.397H38.6207V121.879Z" fill="black"/>
<path d="M60.6897 121.879H55.1724V127.397H60.6897V121.879Z" fill="black"/>
<path d="M66.2069 121.879H60.6897V127.397H66.2069V121.879Z" fill="black"/>
<path d="M71.7241 121.879H66.2069V127.397H71.7241V121.879Z" fill="black"/>
<path d="M77.2414 121.879H71.7241V127.397H77.2414V121.879Z" fill="black"/>
<path d="M110.345 121.879H104.828V127.397H110.345V121.879Z" fill="black"/>
<path d="M115.862 121.879H110.345V127.397H115.862V121.879Z" fill="black"/>
<path d="M126.897 121.879H121.379V127.397H126.897V121.879Z" fill="black"/>
<path d="M137.931 121.879H132.414V127.397H137.931V121.879Z" fill="black"/>
<path d="M160 121.879H154.483V127.397H160V121.879Z" fill="black"/>
<path d="M5.51724 127.397H0V132.914H5.51724V127.397Z" fill="black"/>
<path d="M38.6207 127.397H33.1035V132.914H38.6207V127.397Z" fill="black"/>
<path d="M55.1724 127.397H49.6552V132.914H55.1724V127.397Z" fill="black"/>
<path d="M60.6897 127.397H55.1724V132.914H60.6897V127.397Z" fill="black"/>
<path d="M71.7241 127.397H66.2069V132.914H71.7241V127.397Z" fill="black"/>
<path d="M77.2414 127.397H71.7241V132.914H77.2414V127.397Z" fill="black"/>
<path d="M82.7586 127.397H77.2414V132.914H82.7586V127.397Z" fill="black"/>
<path d="M88.2759 127.397H82.7586V132.914H88.2759V127.397Z" fill="black"/>
<path d="M93.7931 127.397H88.2759V132.914H93.7931V127.397Z" fill="black"/>
<path d="M104.828 127.397H99.3103V132.914H104.828V127.397Z" fill="black"/>
<path d="M110.345 127.397H104.828V132.914H110.345V127.397Z" fill="black"/>
<path d="M115.862 127.397H110.345V132.914H115.862V127.397Z" fill="black"/>
<path d="M137.931 127.397H132.414V132.914H137.931V127.397Z" fill="black"/>
<path d="M148.966 127.397H143.448V132.914H148.966V127.397Z" fill="black"/>
<path d="M154.483 127.397H148.966V132.914H154.483V127.397Z" fill="black"/>
<path d="M5.51724 132.914H0V138.431H5.51724V132.914Z" fill="black"/>
<path d="M16.5517 132.914H11.0345V138.431H16.5517V132.914Z" fill="black"/>
<path d="M22.069 132.914H16.5517V138.431H22.069V132.914Z" fill="black"/>
<path d="M27.5862 132.914H22.069V138.431H27.5862V132.914Z" fill="black"/>
<path d="M38.6207 132.914H33.1035V138.431H38.6207V132.914Z" fill="black"/>
<path d="M49.6552 132.914H44.1379V138.431H49.6552V132.914Z" fill="black"/>
<path d="M55.1724 132.914H49.6552V138.431H55.1724V132.914Z" fill="black"/>
<path d="M60.6897 132.914H55.1724V138.431H60.6897V132.914Z" fill="black"/>
<path d="M77.2414 132.914H71.7241V138.431H77.2414V132.914Z" fill="black"/>
<path d="M82.7586 132.914H77.2414V138.431H82.7586V132.914Z" fill="black"/>
<path d="M88.2759 132.914H82.7586V138.431H88.2759V132.914Z" fill="black"/>
<path d="M99.3103 132.914H93.7931V138.431H99.3103V132.914Z" fill="black"/>
<path d="M115.862 132.914H110.345V138.431H115.862V132.914Z" fill="black"/>
<path d="M121.379 132.914H115.862V138.431H121.379V132.914Z" fill="black"/>
<path d="M126.897 132.914H121.379V138.431H126.897V132.914Z" fill="black"/>
<path d="M132.414 132.914H126.897V138.431H132.414V132.914Z" fill="black"/>
<path d="M137.931 132.914H132.414V138.431H137.931V132.914Z" fill="black"/>
<path d="M148.966 132.914H143.448V138.431H148.966V132.914Z" fill="black"/>
<path d="M5.51724 138.431H0V143.948H5.51724V138.431Z" fill="black"/>
<path d="M16.5517 138.431H11.0345V143.948H16.5517V138.431Z" fill="black"/>
<path d="M22.069 138.431H16.5517V143.948H22.069V138.431Z" fill="black"/>
<path d="M27.5862 138.431H22.069V143.948H27.5862V138.431Z" fill="black"/>
<path d="M38.6207 138.431H33.1035V143.948H38.6207V138.431Z" fill="black"/>
<path d="M66.2069 138.431H60.6897V143.948H66.2069V138.431Z" fill="black"/>
<path d="M77.2414 138.431H71.7241V143.948H77.2414V138.431Z" fill="black"/>
<path d="M93.7931 138.431H88.2759V143.948H93.7931V138.431Z" fill="black"/>
<path d="M104.828 138.431H99.3103V143.948H104.828V138.431Z" fill="black"/>
<path d="M110.345 138.431H104.828V143.948H110.345V138.431Z" fill="black"/>
<path d="M115.862 138.431H110.345V143.948H115.862V138.431Z" fill="black"/>
<path d="M121.379 138.431H115.862V143.948H121.379V138.431Z" fill="black"/>
<path d="M126.897 138.431H121.379V143.948H126.897V138.431Z" fill="black"/>
<path d="M137.931 138.431H132.414V143.948H137.931V138.431Z" fill="black"/>
<path d="M154.483 138.431H148.966V143.948H154.483V138.431Z" fill="black"/>
<path d="M5.51724 143.948H0V149.466H5.51724V143.948Z" fill="black"/>
<path d="M16.5517 143.948H11.0345V149.466H16.5517V143.948Z" fill="black"/>
<path d="M22.069 143.948H16.5517V149.466H22.069V143.948Z" fill="black"/>
<path d="M27.5862 143.948H22.069V149.466H27.5862V143.948Z" fill="black"/>
<path d="M38.6207 143.948H33.1035V149.466H38.6207V143.948Z" fill="black"/>
<path d="M49.6552 143.948H44.1379V149.466H49.6552V143.948Z" fill="black"/>
<path d="M55.1724 143.948H49.6552V149.466H55.1724V143.948Z" fill="black"/>
<path d="M60.6897 143.948H55.1724V149.466H60.6897V143.948Z" fill="black"/>
<path d="M77.2414 143.948H71.7241V149.466H77.2414V143.948Z" fill="black"/>
<path d="M82.7586 143.948H77.2414V149.466H82.7586V143.948Z" fill="black"/>
<path d="M88.2759 143.948H82.7586V149.466H88.2759V143.948Z" fill="black"/>
<path d="M99.3103 143.948H93.7931V149.466H99.3103V143.948Z" fill="black"/>
<path d="M110.345 143.948H104.828V149.466H110.345V143.948Z" fill="black"/>
<path d="M115.862 143.948H110.345V149.466H115.862V143.948Z" fill="black"/>
<path d="M148.966 143.948H143.448V149.466H148.966V143.948Z" fill="black"/>
<path d="M154.483 143.948H148.966V149.466H154.483V143.948Z" fill="black"/>
<path d="M5.51724 149.466H0V154.983H5.51724V149.466Z" fill="black"/>
<path d="M38.6207 149.466H33.1035V154.983H38.6207V149.466Z" fill="black"/>
<path d="M49.6552 149.466H44.1379V154.983H49.6552V149.466Z" fill="black"/>
<path d="M55.1724 149.466H49.6552V154.983H55.1724V149.466Z" fill="black"/>
<path d="M77.2414 149.466H71.7241V154.983H77.2414V149.466Z" fill="black"/>
<path d="M99.3103 149.466H93.7931V154.983H99.3103V149.466Z" fill="black"/>
<path d="M115.862 149.466H110.345V154.983H115.862V149.466Z" fill="black"/>
<path d="M132.414 149.466H126.897V154.983H132.414V149.466Z" fill="black"/>
<path d="M137.931 149.466H132.414V154.983H137.931V149.466Z" fill="black"/>
<path d="M143.448 149.466H137.931V154.983H143.448V149.466Z" fill="black"/>
<path d="M148.966 149.466H143.448V154.983H148.966V149.466Z" fill="black"/>
<path d="M5.51724 154.983H0V160.5H5.51724V154.983Z" fill="black"/>
<path d="M11.0345 154.983H5.51724V160.5H11.0345V154.983Z" fill="black"/>
<path d="M16.5517 154.983H11.0345V160.5H16.5517V154.983Z" fill="black"/>
<path d="M22.069 154.983H16.5517V160.5H22.069V154.983Z" fill="black"/>
<path d="M27.5862 154.983H22.069V160.5H27.5862V154.983Z" fill="black"/>
<path d="M33.1035 154.983H27.5862V160.5H33.1035V154.983Z" fill="black"/>
<path d="M38.6207 154.983H33.1035V160.5H38.6207V154.983Z" fill="black"/>
<path d="M49.6552 154.983H44.1379V160.5H49.6552V154.983Z" fill="black"/>
<path d="M66.2069 154.983H60.6897V160.5H66.2069V154.983Z" fill="black"/>
<path d="M71.7241 154.983H66.2069V160.5H71.7241V154.983Z" fill="black"/>
<path d="M77.2414 154.983H71.7241V160.5H77.2414V154.983Z" fill="black"/>
<path d="M82.7586 154.983H77.2414V160.5H82.7586V154.983Z" fill="black"/>
<path d="M88.2759 154.983H82.7586V160.5H88.2759V154.983Z" fill="black"/>
<path d="M104.828 154.983H99.3103V160.5H104.828V154.983Z" fill="black"/>
<path d="M132.414 154.983H126.897V160.5H132.414V154.983Z" fill="black"/>
<path d="M148.966 154.983H143.448V160.5H148.966V154.983Z" fill="black"/>
<path d="M154.483 154.983H148.966V160.5H154.483V154.983Z" fill="black"/>
</svg>
